<?xml version="1.0" standalone="no"?>
<!DOCTYPE svg PUBLIC "-//W3C//DTD SVG 20010904//EN"
 "http://www.w3.org/TR/2001/REC-SVG-20010904/DTD/svg10.dtd">
<svg version="1.0" xmlns="http://www.w3.org/2000/svg"
 width="2000.000000pt" height="2000.000000pt" viewBox="0 0 2000.000000 2000.000000"
 preserveAspectRatio="xMidYMid meet">
<metadata>
Created by potrace 1.14, written by Peter Selinger 2001-2017
</metadata>
<g transform="translate(0.000000,2000.000000) scale(0.100000,-0.100000)"
fill="#000000" stroke="none">
<path d="M9871 19901 c-8 -5 -17 -26 -20 -47 -6 -36 -9 -39 -44 -42 -20 -2
-37 0 -38 5 -5 60 -19 75 -64 71 -21 -2 -31 -9 -33 -23 -9 -64 -11 -66 -50
-63 -31 2 -38 7 -40 28 -5 34 -20 50 -47 50 -43 0 -55 -10 -55 -46 0 -38 -16
-50 -53 -40 -17 4 -26 16 -33 43 -7 28 -15 39 -31 41 -39 6 -63 -15 -63 -53 0
-29 -4 -36 -27 -41 -29 -8 -60 7 -55 26 6 24 -29 50 -57 44 -37 -9 -45 -19
-45 -56 -1 -29 -5 -33 -29 -36 -35 -4 -55 11 -59 46 -4 38 -49 53 -78 27 -15
-14 -19 -26 -15 -43 7 -29 -10 -52 -39 -52 -28 0 -46 18 -46 46 0 27 -28 38
-71 29 -29 -7 -31 -9 -26 -42 5 -30 3 -35 -20 -44 -39 -15 -57 -7 -63 26 -5
28 -8 30 -50 30 -45 0 -45 0 -50 -40 -5 -38 -7 -40 -42 -43 -35 -3 -38 -1 -46
30 -8 31 -11 33 -47 31 -49 -3 -60 -14 -45 -43 15 -28 -2 -50 -40 -50 -29 0
-56 23 -46 38 12 20 -23 35 -57 25 -28 -8 -32 -13 -32 -45 -1 -45 -2 -47 -46
-50 -31 -3 -35 0 -43 29 -11 35 -36 46 -72 33 -25 -10 -28 -17 -24 -59 2 -28
-14 -41 -52 -41 -23 0 -29 6 -36 33 -6 25 -14 33 -36 35 -38 5 -68 -23 -56
-52 10 -26 4 -39 -27 -54 -30 -16 -47 -7 -59 31 -8 27 -13 32 -38 30 -41 -3
-67 -29 -56 -57 11 -30 2 -42 -36 -50 -29 -6 -33 -4 -48 29 -14 28 -23 35 -45
35 -37 0 -55 -22 -47 -56 15 -58 -56 -77 -87 -23 -16 29 -21 31 -54 26 -47 -8
-49 -12 -35 -50 11 -28 10 -34 -5 -44 -23 -18 -73 -17 -73 1 0 8 -8 24 -18 35
-16 21 -19 21 -55 6 -35 -14 -48 -37 -28 -49 16 -10 -1 -47 -26 -57 -38 -14
-42 -12 -59 31 -9 22 -20 40 -25 40 -11 0 -79 -41 -79 -48 0 -3 7 -13 16 -23
19 -21 13 -34 -26 -54 -26 -13 -30 -13 -44 1 -9 8 -16 21 -16 28 0 8 -7 19
-15 26 -12 10 -21 8 -50 -10 -40 -25 -39 -21 -23 -56 11 -23 10 -28 -7 -40
-34 -25 -64 -17 -82 21 -17 36 -27 43 -38 25 -3 -5 -14 -10 -24 -10 -30 0 -41
-22 -26 -50 20 -35 19 -37 -16 -55 -33 -18 -59 -14 -59 8 0 8 -8 21 -18 31
-17 15 -22 15 -55 1 -37 -15 -46 -28 -27 -40 6 -3 10 -17 10 -31 0 -47 -75
-59 -87 -14 -3 11 -16 23 -29 26 -42 11 -96 -41 -64 -61 20 -12 10 -45 -16
-55 -40 -16 -51 -12 -63 20 -14 41 -37 48 -67 19 -21 -20 -24 -29 -19 -60 6
-32 3 -40 -18 -54 -30 -19 -55 -11 -63 22 -6 23 -10 25 -47 20 -43 -6 -61 -23
-51 -47 19 -45 16 -57 -16 -70 -34 -14 -41 -10 -70 39 -12 21 -84 -14 -77 -37
19 -59 19 -60 -7 -77 -31 -21 -53 -14 -66 20 -12 31 -45 33 -79 4 -21 -17 -23
-23 -13 -40 17 -27 15 -50 -5 -65 -29 -21 -51 -16 -70 16 -19 34 -38 37 -71
14 -23 -16 -29 -48 -12 -59 20 -12 9 -41 -21 -59 l-31 -19 -25 32 c-29 37 -43
39 -79 8 -26 -23 -27 -24 -9 -50 17 -26 17 -28 0 -47 -26 -29 -63 -26 -75 6
-9 22 -14 25 -38 19 -15 -3 -36 -15 -46 -25 -19 -18 -19 -20 -3 -38 22 -24 21
-35 -1 -55 -27 -25 -57 -21 -70 8 -14 31 -35 32 -73 4 -29 -20 -29 -22 -14
-45 21 -33 19 -49 -11 -69 -26 -17 -27 -17 -55 13 -31 33 -56 33 -85 0 -15
-15 -16 -22 -6 -36 26 -36 25 -45 -4 -69 -37 -29 -47 -29 -64 2 -15 27 -57 34
-78 13 -16 -16 -15 -53 2 -68 19 -15 12 -32 -24 -53 -30 -18 -29 -19 -68 28
-18 21 -35 19 -62 -10 -22 -23 -22 -25 -6 -50 21 -32 16 -48 -19 -71 -27 -17
-27 -17 -56 16 l-29 33 -30 -28 c-35 -33 -36 -42 -13 -67 15 -17 15 -20 -7
-43 -28 -30 -56 -32 -65 -6 -9 29 -41 35 -69 14 -35 -25 -38 -40 -15 -62 26
-24 22 -48 -13 -69 -27 -16 -28 -15 -56 11 -34 33 -42 33 -70 4 -26 -27 -27
-40 -7 -57 20 -17 19 -43 -3 -63 -26 -24 -47 -21 -66 8 -21 32 -29 31 -68 -4
l-33 -29 23 -24 c28 -30 28 -43 0 -62 -32 -23 -53 -20 -68 9 -17 32 -27 31
-62 -2 -34 -32 -34 -40 -6 -70 l21 -23 -23 -25 c-30 -32 -45 -31 -74 2 -26 30
-46 27 -71 -11 -16 -24 -16 -27 4 -52 19 -24 20 -30 8 -48 -27 -40 -46 -44
-71 -12 -27 33 -57 30 -83 -10 -15 -23 -15 -26 6 -48 27 -28 26 -37 -2 -64
-29 -27 -43 -28 -59 -2 -16 25 -50 26 -71 2 -21 -23 -22 -58 -2 -66 24 -9 18
-43 -12 -66 l-26 -21 -27 26 c-31 30 -41 31 -61 7 -30 -36 -31 -43 -9 -67 26
-28 22 -47 -16 -71 -26 -17 -27 -17 -44 4 -23 28 -41 28 -70 -2 -23 -25 -22
-35 5 -71 13 -19 13 -23 -1 -43 -19 -27 -48 -28 -74 -2 -24 24 -42 18 -70 -26
l-19 -29 27 -21 27 -22 -21 -28 c-27 -36 -36 -38 -62 -14 -28 26 -44 25 -70
-3 -27 -29 -27 -39 -2 -62 25 -23 26 -47 2 -68 -25 -23 -49 -21 -62 3 -15 28
-34 25 -65 -12 l-26 -31 25 -24 c32 -29 33 -43 3 -71 -29 -27 -30 -27 -63 3
-26 24 -28 24 -47 8 -38 -36 -41 -53 -12 -83 l28 -29 -24 -30 c-29 -36 -33
-37 -58 -10 -24 26 -54 19 -78 -17 -16 -24 -15 -26 10 -50 32 -29 31 -28 11
-59 -18 -28 -45 -32 -64 -10 -17 21 -42 19 -63 -5 -23 -27 -22 -57 3 -70 27
-14 25 -42 -3 -68 l-24 -22 -25 20 c-33 25 -36 25 -59 -2 -24 -30 -24 -60 1
-76 26 -16 25 -34 -3 -60 -27 -26 -45 -28 -53 -7 -9 24 -46 18 -71 -12 l-23
-27 31 -32 c33 -34 31 -53 -6 -84 -13 -11 -19 -10 -38 9 -30 27 -41 27 -66 -5
-28 -35 -26 -58 4 -72 29 -14 32 -42 7 -65 -23 -21 -46 -22 -62 -2 -19 23 -39
18 -59 -16 -20 -33 -18 -59 5 -59 7 0 18 -9 24 -19 8 -16 5 -25 -14 -47 -21
-26 -25 -27 -54 -15 -40 17 -70 6 -78 -26 -6 -21 -2 -30 20 -45 30 -23 33 -48
8 -71 -23 -21 -51 -22 -58 -2 -9 22 -25 18 -51 -12 -30 -34 -29 -57 2 -71 30
-14 32 -41 7 -72 -19 -23 -19 -23 -51 -4 l-33 19 -24 -28 c-30 -36 -30 -51 1
-71 28 -18 31 -42 11 -68 -15 -20 -41 -24 -51 -8 -11 18 -46 11 -66 -12 -26
-32 -24 -46 11 -66 35 -20 38 -40 11 -73 l-19 -24 -33 19 -32 19 -18 -24 c-25
-32 -24 -69 1 -76 32 -9 36 -42 6 -71 -24 -24 -26 -25 -44 -9 -25 23 -37 21
-56 -8 -24 -36 -20 -64 9 -75 29 -11 32 -35 9 -68 -18 -26 -36 -28 -54 -7 -17
20 -26 19 -50 -7 -30 -33 -26 -67 10 -79 34 -12 37 -28 14 -64 -17 -25 -48
-33 -59 -15 -12 19 -40 9 -57 -20 -21 -37 -17 -50 23 -72 29 -17 30 -18 14
-48 -16 -31 -42 -39 -62 -19 -17 17 -39 5 -57 -32 -15 -30 -15 -33 2 -45 9 -7
25 -16 35 -19 20 -7 21 -15 6 -49 -15 -32 -35 -39 -62 -21 -25 16 -38 10 -56
-22 -18 -35 -13 -51 19 -68 35 -18 39 -44 10 -70 -18 -16 -32 -17 -72 0 -12 5
-21 -3 -34 -30 -18 -39 -15 -48 28 -69 30 -15 33 -37 10 -67 -17 -20 -23 -22
-45 -12 -34 16 -67 -7 -67 -48 0 -22 6 -32 25 -39 27 -10 32 -37 15 -71 -12
-22 -32 -24 -60 -7 -24 15 -35 5 -45 -40 -6 -29 -3 -34 24 -50 32 -18 38 -40
21 -73 -11 -20 -45 -26 -55 -9 -14 23 -44 -5 -60 -57 -5 -19 0 -25 29 -37 39
-16 42 -22 24 -61 -10 -23 -15 -25 -53 -19 -41 6 -43 5 -54 -27 -16 -45 -15
-47 24 -63 40 -17 45 -41 15 -74 -23 -24 -35 -27 -45 -12 -13 22 -41 9 -53
-23 -18 -49 -15 -56 20 -65 30 -8 33 -12 31 -42 -2 -45 -27 -64 -58 -44 -27
17 -41 5 -51 -43 -5 -27 -2 -32 31 -52 30 -17 35 -25 29 -44 -12 -39 -23 -47
-51 -36 -36 13 -65 -13 -61 -55 2 -25 8 -32 29 -34 32 -4 42 -30 25 -64 -9
-18 -20 -23 -49 -23 -43 0 -58 -16 -55 -60 3 -24 8 -31 30 -33 32 -4 43 -29
28 -66 -9 -24 -13 -26 -44 -20 -31 5 -36 3 -48 -23 -19 -38 -13 -59 23 -72 21
-7 29 -16 29 -33 0 -38 -15 -51 -61 -52 -43 -1 -44 -2 -47 -39 -3 -35 -1 -39
32 -52 29 -13 36 -21 36 -44 0 -37 -20 -53 -58 -45 -24 5 -32 2 -42 -16 -18
-34 -5 -66 32 -77 29 -8 33 -13 31 -42 -2 -45 -16 -58 -47 -42 -30 17 -42 10
-50 -30 -7 -38 8 -69 35 -69 25 0 35 -25 23 -59 -10 -26 -19 -28 -59 -16 -17
5 -22 -1 -33 -35 -15 -49 -11 -57 31 -68 25 -6 33 -14 35 -36 5 -38 -13 -57
-43 -46 -30 12 -45 -5 -48 -56 -2 -37 0 -39 30 -42 37 -4 48 -24 31 -60 -10
-21 -20 -26 -48 -27 -33 0 -35 -2 -38 -39 -4 -42 7 -56 46 -56 21 0 23 -4 20
-37 -3 -35 -5 -38 -38 -41 -45 -5 -60 -18 -60 -52 0 -32 14 -47 50 -52 19 -2
26 -10 28 -31 4 -37 -15 -60 -44 -53 -25 7 -54 -24 -54 -56 0 -24 27 -48 56
-48 20 0 24 -5 24 -29 0 -32 -22 -56 -45 -48 -33 13 -58 -47 -35 -83 9 -15 14
-16 53 -19 15 -1 18 -8 15 -38 -3 -36 -5 -38 -41 -41 -29 -3 -41 -9 -49 -28
-17 -37 3 -72 44 -76 28 -3 34 -7 36 -31 4 -35 -15 -60 -41 -53 -31 8 -57 -11
-57 -42 0 -33 16 -52 45 -52 29 0 45 -19 45 -51 0 -28 -15 -39 -55 -39 -45 0
-38 -83 7 -88 35 -4 50 -24 46 -59 -2 -24 -8 -28 -36 -31 -24 -2 -36 -10 -44
-28 -17 -37 3 -72 44 -76 28 -3 34 -7 36 -31 4 -36 -13 -57 -48 -57 -32 0 -39
-12 -33 -57 5 -28 9 -32 42 -35 34 -3 36 -5 39 -40 3 -34 0 -38 -25 -43 -47
-11 -53 -14 -59 -30 -4 -8 -3 -26 0 -40 5 -21 12 -25 41 -25 38 0 59 -24 53
-63 -2 -17 -11 -23 -36 -25 -72 -7 -66 -98 7 -104 34 -3 36 -5 36 -38 0 -31
-3 -35 -28 -38 -33 -4 -50 -33 -42 -73 6 -27 15 -34 39 -30 28 5 46 -12 46
-44 0 -34 -13 -45 -51 -45 -27 0 -35 -44 -14 -76 12 -19 23 -24 38 -20 29 7
47 -11 47 -46 0 -29 -3 -32 -52 -42 -24 -5 -28 -12 -28 -39 0 -42 15 -57 57
-57 26 0 34 -5 39 -25 9 -36 0 -51 -35 -58 -27 -6 -31 -11 -31 -39 0 -46 13
-62 44 -56 32 6 48 -12 44 -49 -2 -21 -10 -29 -35 -37 -36 -10 -42 -32 -20
-76 10 -20 19 -24 44 -22 28 3 33 0 39 -24 9 -34 -7 -60 -33 -56 -34 5 -46
-20 -31 -67 12 -40 14 -40 50 -35 34 6 38 4 43 -19 11 -42 2 -61 -30 -67 -34
-6 -42 -30 -26 -73 9 -23 15 -26 47 -24 33 2 38 -1 45 -28 12 -42 5 -55 -30
-55 -24 0 -32 -5 -37 -24 -10 -41 11 -66 55 -66 41 0 51 -11 51 -56 0 -18 -7
-25 -33 -32 -25 -6 -33 -14 -35 -35 -5 -45 11 -62 60 -62 41 0 43 -1 46 -33 3
-29 0 -35 -27 -45 -26 -9 -31 -17 -31 -43 0 -40 21 -58 59 -49 23 5 32 2 39
-12 13 -27 0 -62 -28 -76 -28 -14 -37 -46 -20 -77 10 -18 18 -21 45 -16 31 6
36 4 50 -24 18 -35 7 -60 -27 -60 -25 0 -33 -24 -21 -63 8 -30 12 -32 53 -32
39 0 44 -3 51 -29 10 -35 4 -46 -20 -46 -30 0 -43 -24 -35 -65 7 -39 28 -55
47 -36 26 26 66 -2 67 -46 0 -17 -10 -27 -35 -37 -40 -17 -41 -20 -20 -70 15
-36 28 -45 40 -26 3 6 17 10 31 10 17 0 27 -8 34 -26 16 -40 12 -51 -20 -63
-37 -12 -46 -32 -29 -63 17 -32 29 -38 55 -26 17 8 27 8 38 -1 36 -30 26 -81
-16 -81 -28 0 -33 -27 -12 -66 20 -37 25 -39 56 -23 18 10 25 8 40 -11 25 -31
23 -58 -7 -72 -20 -9 -25 -18 -25 -50 0 -45 18 -57 57 -39 30 14 48 3 56 -35
4 -21 -1 -30 -24 -43 -35 -19 -39 -59 -9 -86 17 -15 24 -16 46 -7 33 16 31 16
49 -18 22 -42 19 -49 -20 -66 -19 -8 -35 -16 -35 -18 0 -2 7 -19 15 -39 16
-40 38 -52 55 -31 18 20 36 17 54 -8 22 -31 20 -55 -5 -63 -33 -11 -45 -49
-25 -80 18 -28 36 -31 67 -12 18 10 23 9 40 -12 26 -32 24 -49 -11 -69 -32
-18 -35 -27 -20 -66 10 -27 41 -34 70 -16 10 6 21 3 37 -12 31 -29 29 -55 -7
-73 -33 -17 -36 -28 -17 -68 13 -29 36 -34 68 -14 18 10 23 9 40 -12 27 -33
24 -58 -11 -76 -35 -18 -36 -23 -12 -64 20 -36 24 -37 59 -14 25 17 26 16 49
-11 31 -35 30 -40 -6 -66 -36 -26 -37 -40 -6 -76 23 -27 24 -28 50 -11 31 21
40 17 61 -24 17 -31 13 -49 -9 -49 -8 0 -19 -7 -26 -15 -11 -13 -10 -22 3 -50
16 -34 40 -45 52 -25 12 20 54 10 72 -16 17 -26 16 -27 -17 -54 -32 -26 -33
-28 -19 -58 18 -41 34 -46 71 -25 29 18 30 18 49 -6 25 -30 24 -58 -1 -66 -15
-5 -20 -15 -20 -41 0 -46 35 -65 74 -39 15 10 28 16 29 14 19 -26 37 -60 37
-69 0 -6 -11 -16 -25 -22 -30 -14 -32 -43 -5 -78 l19 -25 36 20 37 19 19 -24
c26 -35 24 -48 -11 -68 -16 -9 -30 -19 -30 -22 0 -3 9 -20 20 -38 22 -35 44
-40 71 -16 22 20 56 4 65 -31 5 -20 0 -30 -20 -46 -34 -26 -33 -39 5 -75 l30
-29 18 24 c22 29 51 22 72 -15 13 -24 12 -28 -15 -49 -31 -25 -30 -49 5 -81
16 -15 23 -16 37 -6 33 24 43 24 68 2 30 -30 30 -44 -1 -64 -29 -19 -32 -42
-9 -74 18 -25 46 -29 64 -7 18 21 39 19 61 -8 25 -30 24 -42 -6 -61 -14 -9
-25 -25 -25 -35 0 -40 73 -70 86 -36 8 21 37 19 57 -3 24 -26 21 -49 -8 -68
-31 -20 -31 -27 -3 -64 25 -35 48 -38 66 -10 16 26 32 25 60 -4 28 -31 28 -40
-5 -65 -24 -20 -25 -23 -12 -47 22 -42 44 -48 80 -22 l31 23 24 -28 c30 -35
30 -43 -1 -63 -14 -9 -25 -21 -25 -28 0 -12 47 -66 57 -66 4 0 19 12 34 26
l27 26 26 -29 c32 -34 32 -38 1 -67 -31 -29 -31 -37 -2 -64 29 -27 42 -27 75
-2 l25 20 24 -22 c28 -26 30 -54 3 -68 -27 -14 -25 -42 3 -68 29 -27 49 -28
65 -2 16 25 37 25 62 0 25 -25 25 -34 -1 -59 -26 -24 -22 -48 13 -74 l28 -21
23 22 c28 27 35 27 65 3 27 -24 28 -41 1 -64 -26 -23 -22 -44 13 -70 l28 -21
28 27 29 28 26 -21 c32 -26 35 -55 6 -70 -27 -15 -21 -48 13 -73 l28 -21 29
28 c28 27 30 27 54 11 37 -24 40 -42 11 -68 l-25 -24 26 -31 c32 -39 39 -39
69 -7 29 31 37 31 64 2 27 -29 27 -39 2 -62 -26 -24 -25 -42 3 -66 30 -25 49
-24 76 7 l23 27 31 -32 31 -31 -27 -28 -27 -28 22 -21 c38 -34 60 -37 79 -11
15 19 22 21 45 13 44 -16 52 -40 24 -70 l-24 -25 29 -30 c16 -17 32 -30 36
-30 5 0 19 12 32 26 29 31 56 29 76 -8 15 -25 14 -29 -7 -48 -12 -11 -22 -23
-22 -25 0 -12 57 -55 73 -55 9 0 23 11 29 25 14 31 25 31 61 2 l29 -22 -21
-27 c-27 -33 -26 -36 5 -64 30 -29 48 -30 66 -6 23 33 38 35 64 11 28 -26 30
-36 8 -60 -19 -21 -12 -49 17 -67 25 -16 56 -7 64 19 9 27 46 23 69 -8 15 -20
17 -29 7 -42 -24 -34 -24 -44 -2 -63 32 -25 53 -23 80 8 20 23 24 24 44 11 37
-24 43 -43 22 -66 -15 -17 -16 -25 -7 -46 6 -13 23 -27 38 -31 22 -6 31 -2 46
20 23 31 48 33 73 6 18 -20 18 -22 1 -51 -18 -30 -18 -31 5 -55 29 -31 60 -28
77 9 16 32 30 34 66 6 31 -25 32 -32 6 -57 l-21 -19 26 -32 c15 -17 31 -31 37
-31 5 0 23 14 38 31 28 29 30 30 59 14 35 -18 39 -39 14 -68 -17 -18 -17 -20
12 -43 37 -29 62 -31 70 -4 11 36 40 43 71 17 26 -22 26 -24 11 -53 -18 -35
-14 -45 30 -66 l32 -16 22 34 c11 19 23 34 26 34 12 0 63 -42 63 -52 0 -6 -8
-20 -17 -31 -17 -18 -17 -20 12 -43 38 -30 63 -30 75 0 13 35 25 39 61 21 25
-13 30 -21 24 -38 -19 -63 -19 -65 20 -82 21 -8 39 -14 40 -13 1 2 10 18 19
36 19 37 19 37 57 15 29 -17 38 -46 19 -58 -14 -9 -12 -41 3 -52 6 -6 24 -13
39 -17 22 -5 28 -2 40 24 15 35 44 39 78 12 22 -18 22 -20 7 -43 -15 -23 -15
-27 -1 -47 22 -32 71 -30 86 3 13 28 44 33 74 11 18 -14 18 -16 1 -44 -17 -30
-17 -31 12 -51 40 -29 69 -27 77 3 7 30 29 39 57 24 31 -16 37 -28 25 -53 -27
-60 57 -94 87 -35 17 33 22 35 60 20 25 -10 27 -13 21 -54 -7 -42 -6 -45 25
-60 44 -22 47 -21 63 19 16 38 23 41 61 23 27 -12 31 -28 15 -58 -8 -15 -5
-23 12 -40 32 -30 64 -26 83 10 18 36 53 40 80 10 17 -19 17 -21 0 -40 -17
-19 -17 -21 0 -40 28 -31 72 -26 93 10 19 33 29 36 67 18 27 -12 32 -27 14
-45 -16 -16 -2 -50 24 -57 41 -11 57 -6 67 19 13 34 35 41 64 21 20 -13 24
-23 23 -57 -2 -38 1 -43 27 -52 31 -10 30 -11 77 55 16 22 17 22 43 4 24 -15
27 -22 22 -51 -5 -27 -3 -36 16 -49 38 -27 65 -21 78 18 14 43 26 48 67 23 38
-22 38 -21 18 -51 -18 -28 -7 -42 42 -52 27 -5 32 -2 47 31 16 34 21 37 49 31
42 -8 51 -20 38 -45 -18 -33 2 -61 44 -61 30 0 37 5 50 36 13 32 18 35 42 30
39 -10 55 -33 40 -58 -10 -16 -8 -22 12 -39 42 -34 91 -20 91 28 0 17 6 23 21
23 37 0 60 -19 59 -48 -3 -45 -1 -49 30 -55 38 -8 60 0 60 22 0 23 20 41 46
41 29 0 48 -24 40 -54 -7 -28 8 -43 49 -48 25 -3 32 2 47 35 20 40 24 42 64
27 23 -9 26 -15 21 -43 -5 -30 -2 -35 28 -52 41 -22 63 -15 67 21 4 34 27 49
62 40 25 -6 27 -11 24 -44 -2 -31 1 -39 24 -52 35 -19 59 -6 71 39 7 30 11 32
45 29 35 -3 37 -4 36 -39 -1 -31 4 -39 30 -53 41 -22 66 -12 66 25 0 33 28 52
64 43 29 -7 40 -29 26 -53 -13 -26 6 -41 52 -41 33 0 38 4 44 27 10 40 21 51
49 45 31 -5 40 -18 40 -57 0 -29 2 -30 45 -30 43 0 45 1 48 32 4 36 19 45 59
34 24 -6 28 -13 28 -41 0 -27 6 -37 27 -50 35 -19 62 -5 66 34 4 34 32 49 67
36 22 -8 26 -15 23 -42 l-3 -33 50 0 c49 0 50 1 53 32 3 35 27 49 61 38 15 -4
21 -17 23 -48 3 -41 4 -42 41 -45 40 -3 50 9 56 71 1 5 18 7 39 5 34 -3 37 -6
40 -36 3 -25 10 -35 30 -43 36 -14 72 3 72 34 0 29 17 47 45 47 29 0 45 -19
45 -51 0 -32 33 -45 74 -29 20 7 26 16 26 40 0 23 5 31 25 36 38 9 55 -2 55
-36 0 -39 36 -59 75 -42 20 9 24 17 20 35 -8 30 15 49 52 45 24 -2 28 -8 31
-36 4 -37 38 -58 79 -47 18 4 23 12 23 40 0 29 4 36 27 41 31 8 57 -6 59 -32
1 -11 2 -24 3 -30 2 -18 46 -25 77 -14 22 9 26 15 21 39 -7 34 8 51 45 51 29
0 32 -3 42 -52 5 -24 11 -28 41 -28 39 0 50 12 50 55 0 28 2 30 40 30 38 0 40
-2 45 -35 5 -32 8 -35 43 -38 47 -4 66 10 59 44 -6 30 10 44 51 44 25 0 31 -8
28 -36 -3 -23 28 -36 68 -29 39 6 40 8 38 43 -2 37 -2 37 38 37 38 0 40 -2 45
-35 4 -31 9 -35 40 -38 42 -4 62 18 53 59 -4 24 -1 30 22 41 34 15 58 1 65
-38 5 -27 8 -29 50 -29 l45 0 3 42 c3 37 6 42 32 48 37 8 50 0 50 -30 0 -30
32 -48 70 -40 26 6 29 11 32 48 3 40 5 42 38 45 33 3 36 0 45 -30 11 -35 30
-44 71 -34 20 5 24 12 24 47 0 32 4 41 22 48 34 12 55 2 62 -30 4 -20 13 -30
32 -35 39 -10 58 7 64 56 4 37 9 45 33 51 30 8 57 -10 57 -39 0 -10 10 -23 21
-31 19 -11 25 -10 48 7 20 14 25 26 23 49 -6 59 64 74 83 18 16 -49 38 -57 76
-26 17 14 23 27 21 54 -2 29 1 36 20 41 40 10 49 7 59 -24 10 -26 16 -30 50
-30 44 0 64 23 47 54 -12 22 4 42 43 51 22 5 28 2 39 -24 19 -47 34 -55 70
-36 28 14 30 19 24 50 -5 30 -3 35 24 49 28 14 32 14 46 0 9 -8 16 -24 16 -34
0 -26 31 -33 68 -14 32 15 41 37 22 49 -20 13 -9 36 26 52 34 17 36 17 50 -2
8 -10 14 -27 14 -37 0 -14 8 -18 34 -18 42 0 60 21 53 60 -5 23 -2 33 16 45
33 23 53 18 67 -16 12 -28 16 -31 48 -25 49 7 58 19 43 53 -11 25 -10 29 9 45
32 26 57 22 72 -9 14 -30 36 -38 73 -29 26 7 41 34 25 50 -18 18 -11 46 16 56
39 15 49 12 61 -20 9 -24 17 -30 41 -30 40 0 55 20 47 63 -6 30 -3 37 15 47
32 17 63 9 70 -20 8 -33 42 -37 80 -10 28 20 29 22 14 45 -18 28 -13 40 27 60
29 15 30 15 47 -14 21 -38 33 -43 72 -30 32 12 37 28 18 59 -10 15 -9 23 6 39
27 30 58 26 78 -9 20 -35 45 -38 76 -10 23 22 28 45 12 55 -20 13 -9 40 22 54
30 14 32 13 57 -18 25 -29 28 -30 64 -21 42 12 41 11 25 58 -11 30 -11 35 7
48 27 20 63 18 70 -5 11 -36 31 -44 64 -27 41 21 45 31 25 61 -16 24 -16 27 1
45 27 29 71 26 79 -5 8 -31 43 -34 77 -6 21 17 22 22 12 40 -20 32 -15 57 13
69 30 14 59 2 69 -28 9 -27 37 -25 65 5 21 22 22 29 12 45 -18 30 -15 44 16
62 33 19 50 14 62 -18 11 -28 31 -30 71 -7 32 19 36 34 14 53 -22 18 -18 36
13 59 31 21 43 18 61 -17 15 -29 43 -28 78 2 27 24 27 24 9 45 -22 24 -16 44
19 67 26 17 26 17 54 -17 28 -33 28 -33 55 -16 32 22 43 44 27 60 -22 22 -13
54 19 67 33 13 60 2 60 -26 0 -18 24 -18 60 1 34 17 37 35 15 69 -15 23 -14
25 11 45 34 26 36 26 62 -4 25 -29 39 -31 70 -9 25 17 28 41 7 68 -13 18 -13
22 7 43 28 30 47 29 74 -4 19 -25 24 -26 48 -15 33 15 43 39 28 63 -17 27 -15
50 6 65 29 22 59 17 66 -11 8 -31 20 -31 63 -2 36 24 41 38 18 57 -23 19 -14
52 18 70 27 14 30 14 44 -8 17 -24 43 -28 74 -12 24 13 25 47 2 73 -17 18 -17
20 10 43 36 30 51 30 71 -1 20 -31 36 -32 64 -2 26 27 28 52 6 61 -24 9 -13
48 19 66 27 14 29 14 51 -12 27 -34 36 -35 64 -5 26 27 28 44 7 67 -19 21 -11
44 22 65 24 16 26 16 52 -9 33 -32 42 -32 69 -3 26 27 27 40 7 57 -22 18 -18
43 11 71 l26 24 22 -27 c27 -34 46 -35 76 -4 21 24 22 56 1 56 -21 0 -21 34 0
57 28 29 52 29 71 1 13 -20 18 -21 42 -10 38 17 49 51 25 78 -24 25 -24 35 -1
55 34 29 41 30 64 4 27 -32 35 -31 70 2 34 32 34 40 6 63 -21 16 -21 20 -9 44
20 36 51 44 69 17 19 -27 43 -27 70 2 27 29 28 43 2 57 -27 14 -25 42 3 68 29
27 31 27 56 1 24 -26 48 -22 74 13 l21 28 -22 20 c-28 26 -28 41 1 68 29 28
31 28 61 -5 l25 -27 31 29 c37 35 37 48 5 69 -31 20 -32 36 -2 64 29 27 39 27
62 2 24 -27 36 -25 70 10 l29 31 -27 25 c-33 31 -32 49 5 72 26 15 28 15 53
-8 l25 -24 30 29 c17 16 30 32 30 35 0 4 -11 19 -25 34 -20 22 -23 31 -15 46
19 35 47 43 70 20 27 -27 44 -25 69 6 27 35 26 44 -5 69 -26 21 -26 22 -10 47
24 37 47 43 68 19 23 -29 39 -26 65 11 l23 32 -25 26 c-31 32 -31 41 -1 69 24
22 25 23 54 6 35 -21 58 -15 74 20 10 22 8 28 -15 49 -33 30 -33 37 -4 64 27
26 40 27 57 7 19 -23 44 -18 69 15 l22 30 -26 24 c-30 28 -31 43 -6 75 18 24
18 24 50 5 35 -20 53 -15 78 23 13 20 12 24 -11 44 -31 27 -32 39 -7 67 22 26
38 28 61 7 22 -20 42 -12 63 25 17 28 17 29 -13 57 l-31 29 21 27 c25 31 36
33 62 10 23 -20 41 -12 66 30 17 27 16 28 -13 52 -29 23 -29 25 -15 52 19 34
45 41 71 17 18 -16 20 -16 39 1 34 31 35 55 4 81 -28 22 -28 24 -14 51 19 34
45 40 72 16 20 -17 21 -17 44 12 31 38 30 59 -1 79 -30 20 -31 33 -6 65 18 24
20 24 45 8 38 -25 52 -21 69 20 16 40 16 42 -29 69 -16 9 -17 15 -6 38 15 33
38 43 63 28 28 -18 45 -14 63 13 23 34 20 45 -16 75 l-32 27 20 26 c22 30 40
34 65 11 17 -15 20 -14 43 10 38 37 35 53 -18 90 -17 12 -17 14 -2 44 17 32
43 41 63 21 18 -18 51 -1 62 33 12 34 11 36 -21 52 -30 15 -32 35 -9 65 17 23
21 24 51 11 31 -13 34 -12 51 9 27 34 25 69 -5 77 -35 8 -40 31 -15 66 15 20
26 27 38 22 45 -19 59 -16 75 15 17 32 18 30 -32 69 -21 16 -22 20 -11 44 14
32 34 41 59 28 29 -16 39 -12 60 23 26 42 26 45 -15 64 -39 19 -40 40 -4 78
15 15 21 17 31 7 21 -21 47 -13 63 19 18 33 10 53 -26 64 -25 8 -25 47 1 70
18 16 23 17 46 4 24 -12 28 -12 45 10 29 36 25 67 -11 80 -33 11 -40 42 -16
74 11 14 22 16 54 11 34 -5 42 -3 51 14 18 33 13 51 -19 67 -33 17 -39 48 -16
80 12 16 17 17 44 6 38 -16 49 -10 61 36 12 44 10 49 -30 57 -28 5 -31 9 -24
33 10 43 30 59 58 46 27 -13 39 -7 56 24 18 36 13 52 -24 67 -38 16 -41 25
-24 59 17 32 31 38 55 22 25 -16 39 -9 53 28 16 40 15 43 -23 65 -28 16 -33
25 -29 46 7 36 27 50 52 37 30 -17 39 -14 56 20 20 38 14 57 -25 70 -30 11
-35 24 -24 67 6 20 12 22 52 20 42 -3 46 -1 53 26 10 35 -5 66 -31 66 -25 0
-32 13 -24 45 8 31 41 52 57 36 6 -6 14 -11 18 -11 18 0 39 34 39 61 0 25 -6
33 -35 45 -36 15 -39 22 -28 63 5 20 10 22 43 17 33 -5 40 -3 55 20 23 35 16
56 -25 75 -19 9 -34 20 -34 23 1 4 4 20 8 37 5 29 8 30 48 27 l43 -3 0 45 c0
39 -3 45 -25 50 -28 7 -37 38 -20 70 9 17 17 20 44 15 30 -6 34 -4 46 25 15
37 5 63 -26 68 -32 6 -44 30 -32 64 9 27 14 29 41 24 36 -7 67 16 67 50 0 25
-26 44 -59 44 -15 0 -21 6 -21 23 0 38 25 64 57 60 34 -5 56 15 56 53 0 29
-17 44 -50 44 -29 0 -39 34 -19 65 13 19 24 24 48 23 60 -5 74 75 15 90 -41
11 -54 33 -39 67 11 23 17 26 42 22 39 -8 62 15 58 57 -3 27 -7 32 -38 36 -38
5 -47 22 -35 67 5 22 10 24 38 19 28 -5 34 -2 50 25 9 17 17 34 17 39 0 18
-33 40 -50 35 -24 -8 -40 21 -33 58 5 26 9 28 42 25 l36 -3 0 50 c0 47 -1 50
-30 55 -34 6 -41 24 -25 64 8 23 15 27 34 22 35 -9 58 14 54 54 -3 31 -7 36
-38 40 -33 5 -35 7 -35 45 0 39 1 40 35 40 35 0 35 0 38 48 2 33 -1 47 -10 48
-7 1 -17 2 -23 4 -5 1 -15 3 -22 3 -17 3 -26 38 -14 61 8 13 24 21 49 23 36 3
37 4 40 45 3 39 1 43 -25 49 -50 11 -53 13 -53 48 0 36 15 48 49 39 25 -6 42
28 34 69 -4 23 -11 27 -42 30 -34 3 -36 5 -36 38 0 31 3 35 30 38 40 5 55 19
55 52 0 31 -13 44 -53 54 -34 8 -43 29 -29 62 9 18 19 24 42 24 24 0 31 5 36
26 9 36 -10 74 -34 67 -22 -5 -52 21 -52 45 0 27 13 39 47 46 60 13 52 92 -10
98 -29 3 -32 6 -32 37 0 29 4 35 34 45 66 21 58 100 -10 101 -33 0 -34 1 -34
40 0 37 2 40 30 43 42 5 47 13 37 58 -7 36 -10 39 -43 39 -33 0 -34 1 -34 40
0 38 2 40 35 45 38 5 48 27 35 77 -5 21 -10 24 -33 20 -36 -7 -49 2 -52 33 -4
45 -1 50 31 50 l30 0 -3 53 -3 52 -36 -3 c-32 -3 -37 0 -43 23 -9 34 9 65 38
65 40 0 52 25 30 65 -16 30 -22 34 -53 32 -33 -2 -36 1 -39 26 -4 35 11 55 46
59 25 3 27 7 27 48 l0 45 -43 -3 c-38 -2 -43 1 -52 23 -13 35 2 63 37 67 25 3
28 7 31 46 3 44 4 44 -53 46 -20 1 -33 8 -41 25 -17 33 -3 57 36 64 26 6 30
11 30 39 0 48 -12 61 -47 54 -33 -8 -48 4 -58 46 -6 24 -4 28 26 35 42 11 56
34 43 70 -9 25 -14 28 -52 25 -37 -2 -42 0 -48 22 -9 37 -1 61 23 64 11 2 29
12 39 23 17 19 17 21 -3 47 -16 21 -28 26 -52 24 -26 -2 -33 3 -41 24 -15 37
-4 62 28 66 25 3 27 6 25 42 -3 45 -16 57 -53 49 -33 -6 -53 16 -48 53 2 22
10 30 36 36 36 10 40 24 17 69 -14 27 -19 29 -50 23 -27 -5 -35 -2 -44 14 -19
35 -12 52 24 68 28 11 35 20 35 43 0 15 -9 36 -21 47 -17 15 -23 16 -41 5 -25
-15 -46 0 -50 38 -2 18 5 28 27 41 33 18 42 48 25 80 -9 16 -19 20 -52 18 -38
-3 -43 0 -52 26 -9 24 -8 31 8 40 55 33 59 40 47 79 -13 38 -36 48 -59 25 -21
-21 -71 43 -53 69 3 4 18 14 34 20 29 14 34 32 16 66 -17 32 -30 37 -53 22
-25 -17 -41 -9 -55 27 -10 28 -1 40 54 73 16 10 16 13 -5 48 -24 41 -30 43
-61 25 -17 -11 -22 -10 -39 12 -27 35 -25 45 16 69 25 15 34 26 30 37 -3 9 -9
27 -12 40 -4 17 -13 24 -30 24 -13 0 -24 -4 -24 -10 0 -16 -26 -11 -43 8 -25
28 -21 61 8 72 30 11 39 31 31 64 -7 28 -42 44 -59 27 -19 -19 -41 -12 -54 16
-19 40 -16 51 17 68 35 18 38 36 9 76 -20 28 -21 28 -46 12 -25 -16 -26 -16
-44 6 -26 32 -24 59 6 73 18 8 25 19 25 39 0 34 -26 63 -49 53 -42 -17 -50
-15 -64 13 -18 35 -13 49 24 68 32 17 37 36 14 59 -8 8 -15 19 -15 25 0 16
-31 13 -51 -5 -17 -15 -20 -14 -43 11 -30 33 -32 40 -10 57 35 29 54 48 54 56
0 4 -11 20 -24 37 -23 29 -25 29 -43 12 -26 -23 -39 -22 -57 5 -23 32 -20 57
9 70 31 14 33 50 5 78 -22 22 -36 25 -45 10 -3 -5 -17 -10 -29 -10 -17 0 -27
9 -36 31 -12 29 -11 32 20 57 33 28 33 28 16 60 -16 31 -48 43 -61 22 -12 -20
-45 -10 -59 18 -16 31 -12 43 22 61 29 15 28 46 -2 76 -24 24 -26 24 -55 8
-29 -17 -30 -17 -50 7 -27 33 -26 42 9 68 37 27 38 41 5 72 -22 21 -29 22 -45
12 -27 -17 -44 -15 -63 6 -24 26 -21 51 8 64 32 14 33 48 2 83 l-22 26 -24
-20 c-30 -26 -32 -26 -53 -2 -26 30 -26 55 0 66 31 14 36 39 16 70 -14 21 -23
25 -43 20 -51 -12 -64 -10 -83 17 l-20 26 33 30 c33 29 33 30 15 56 -23 36
-43 42 -67 20 -23 -20 -42 -14 -66 23 -13 20 -12 24 15 48 34 30 33 51 -3 85
l-24 22 -27 -21 -27 -21 -24 22 c-29 27 -29 39 2 68 30 28 30 38 6 68 -22 26
-43 28 -61 7 -17 -21 -33 -19 -58 8 -28 30 -28 43 4 63 20 14 24 22 19 43 -13
50 -49 67 -75 36 -18 -22 -43 -18 -64 12 l-19 26 26 23 c31 27 34 54 9 77 -24
22 -50 22 -74 0 -17 -15 -20 -15 -43 7 -32 30 -32 53 0 70 31 17 32 40 2 68
-27 26 -40 27 -57 7 -18 -22 -43 -18 -70 10 l-24 25 28 29 c26 27 27 31 14 58
-15 32 -49 41 -68 18 -19 -23 -46 -18 -70 12 l-22 28 26 22 c29 25 33 45 11
63 -8 7 -15 19 -15 26 0 19 -13 17 -43 -6 -31 -25 -49 -25 -70 -2 -24 26 -21
47 9 69 l26 19 -27 32 c-31 37 -45 40 -70 12 -23 -26 -37 -25 -63 3 -28 29
-28 35 3 63 32 29 31 34 -5 69 l-30 29 -23 -22 c-28 -27 -49 -28 -70 -4 -23
25 -21 49 3 62 43 23 5 88 -45 76 -14 -4 -25 -11 -25 -16 0 -17 -46 -11 -63 8
-22 24 -21 35 3 57 26 24 25 47 -3 73 -30 28 -39 28 -65 -3 -18 -20 -26 -23
-40 -16 -33 18 -47 41 -35 59 5 9 16 27 23 38 12 20 10 25 -15 48 -15 14 -30
26 -32 26 -2 0 -15 -12 -28 -26 -24 -26 -25 -26 -50 -10 -34 23 -41 43 -21 65
22 24 20 53 -4 74 -26 22 -43 22 -65 -3 -24 -26 -37 -25 -65 5 l-24 25 28 29
27 28 -26 32 c-32 38 -49 39 -71 6 -19 -29 -36 -31 -64 -8 -24 21 -26 46 -5
63 24 20 18 44 -16 69 l-31 23 -23 -28 c-23 -28 -24 -29 -52 -12 -32 19 -41
49 -18 68 22 18 19 46 -7 64 -30 22 -55 20 -68 -4 -14 -26 -42 -26 -65 1 -19
19 -19 21 0 56 l19 35 -27 24 c-36 30 -51 30 -71 -1 -20 -31 -36 -32 -64 -2
-27 28 -27 28 -2 57 23 27 13 54 -26 72 -23 11 -28 9 -49 -18 -23 -29 -24 -29
-52 -12 -34 20 -40 43 -18 68 16 18 16 21 2 44 -25 38 -54 42 -82 12 -28 -31
-29 -31 -60 -10 -29 19 -32 40 -8 66 21 23 10 45 -31 68 -24 13 -28 13 -36 0
-27 -44 -28 -44 -56 -35 -40 15 -52 39 -31 63 26 29 21 51 -18 69 l-36 17 -24
-29 c-23 -30 -24 -30 -52 -13 -32 19 -41 49 -18 68 22 18 19 35 -10 54 -34 22
-52 20 -71 -9 -20 -30 -28 -31 -65 -4 -27 19 -28 22 -14 42 21 30 19 53 -7 71
-33 23 -57 20 -68 -9 -11 -30 -39 -32 -70 -7 -17 13 -21 24 -16 40 4 12 12 22
17 22 13 0 11 36 -4 48 -6 6 -23 13 -37 17 -21 5 -28 1 -43 -25 -21 -34 -28
-36 -62 -14 -28 18 -32 45 -10 64 22 18 19 28 -17 50 -46 28 -64 25 -77 -11
-8 -24 -15 -30 -28 -24 -10 4 -26 9 -35 12 -24 7 -31 33 -13 53 21 23 19 39
-7 61 -31 25 -56 24 -70 -5 -14 -33 -36 -40 -64 -21 -24 16 -32 49 -14 60 19
12 10 45 -14 55 -13 5 -27 14 -31 19 -9 15 -25 14 -25 -1 0 -7 -9 -24 -19 -37
-17 -22 -21 -23 -49 -12 -37 16 -45 33 -27 58 23 29 17 47 -19 65 -32 16 -35
16 -49 0 -7 -9 -17 -25 -20 -34 -8 -24 -38 -23 -65 2 -26 25 -27 28 -7 50 19
21 11 44 -21 59 -39 17 -52 13 -69 -19 -17 -33 -23 -35 -60 -18 -25 11 -37 58
-15 58 18 0 11 26 -13 48 -32 30 -53 28 -74 -8 -20 -34 -41 -38 -73 -12 -19
15 -21 22 -11 40 17 32 14 41 -21 62 -44 26 -47 26 -64 -15 -17 -41 -41 -45
-72 -12 -15 16 -18 27 -12 37 16 25 11 49 -14 65 -29 19 -52 11 -72 -27 -13
-25 -20 -29 -42 -23 -41 10 -47 20 -35 59 12 40 7 51 -29 59 -35 9 -58 -1 -69
-29 -9 -26 -29 -30 -61 -13 -17 9 -19 17 -14 54 7 42 6 43 -28 55 -37 12 -56
7 -56 -14 0 -7 -9 -21 -20 -31 -20 -18 -21 -18 -48 2 -15 12 -25 27 -23 35 15
53 14 55 -57 85 -7 3 -18 -9 -27 -31 -13 -29 -20 -36 -44 -36 -41 0 -56 22
-42 62 12 34 3 48 -29 48 -9 0 -21 5 -27 11 -9 9 -16 3 -29 -24 -21 -44 -39
-52 -70 -32 -24 16 -32 49 -14 60 19 12 10 26 -25 41 -49 20 -54 18 -71 -21
-16 -38 -45 -46 -79 -21 -17 12 -18 17 -7 41 16 36 1 55 -44 55 -27 0 -36 -6
-49 -30 -11 -21 -23 -30 -40 -30 -30 0 -59 38 -44 56 16 19 1 53 -26 60 -31 8
-63 -11 -67 -38 -2 -17 -11 -24 -32 -26 -37 -5 -51 10 -48 51 2 27 -3 36 -28
50 -37 22 -70 9 -70 -29 0 -31 -21 -40 -57 -22 -25 12 -28 18 -25 55 3 38 1
43 -23 49 -35 9 -75 -10 -75 -35 0 -29 -31 -43 -61 -27 -19 10 -23 18 -21 45
4 39 -9 51 -55 51 -25 0 -33 -4 -33 -18 0 -10 -6 -27 -14 -37 -11 -16 -19 -17
-47 -9 -33 10 -39 23 -28 63 2 8 -11 23 -29 34 -31 18 -34 18 -52 2 -10 -9
-20 -27 -22 -39 -2 -15 -11 -22 -31 -24 -39 -5 -59 14 -52 49 5 22 1 31 -19
44 -40 26 -70 16 -76 -25 -4 -30 -9 -35 -34 -38 -37 -5 -51 11 -51 55 0 42
-20 59 -58 49 -18 -4 -29 -15 -33 -34 -10 -40 -20 -49 -54 -44 -31 4 -32 6
-34 57 -1 20 -8 33 -25 41 -32 16 -56 4 -69 -36 -13 -35 -31 -45 -67 -36 -23
6 -25 11 -23 43 3 35 1 37 -32 44 -38 8 -60 -3 -60 -31 0 -29 -25 -43 -57 -32
-23 8 -28 14 -26 39 4 43 -18 59 -65 47 -32 -8 -37 -13 -37 -39 0 -26 -4 -30
-31 -33 -38 -4 -63 18 -57 50 6 31 -34 52 -72 38 -19 -7 -25 -17 -25 -40 0
-30 -2 -31 -37 -28 -35 3 -38 6 -41 35 -4 39 -31 57 -72 48 -23 -5 -29 -12
-32 -38 -3 -29 -7 -32 -40 -35 -36 -3 -37 -2 -40 35 -3 34 -6 38 -38 44 -41 9
-60 -3 -60 -37 0 -17 -9 -28 -26 -36 -33 -16 -58 -1 -62 38 -5 39 -19 54 -52
54 -33 0 -47 -15 -52 -55 -3 -27 -7 -30 -38 -30 -32 0 -35 3 -38 33 -7 74
-102 81 -102 7 0 -28 -4 -36 -24 -41 -43 -10 -61 -1 -64 33 -4 44 -49 74 -81
54z m679 -226 c157 -8 326 -19 375 -25 352 -41 527 -62 570 -70 28 -5 100 -16
160 -25 61 -9 137 -23 170 -30 33 -8 121 -26 195 -40 74 -14 189 -39 255 -56
158 -40 217 -54 295 -72 36 -8 92 -24 125 -35 75 -25 130 -41 175 -52 19 -4
49 -13 65 -19 17 -6 118 -40 225 -76 264 -87 529 -190 830 -322 153 -67 587
-282 730 -362 58 -33 141 -79 185 -104 196 -110 567 -351 855 -555 207 -147
574 -446 830 -677 479 -431 1041 -1065 1378 -1552 19 -26 53 -75 76 -108 134
-190 459 -710 503 -805 4 -8 30 -55 58 -105 104 -184 304 -601 392 -814 30
-74 59 -141 63 -150 5 -9 19 -43 31 -76 12 -33 30 -82 41 -110 11 -27 23 -61
28 -75 5 -14 18 -50 30 -80 12 -30 25 -68 30 -85 9 -33 53 -159 74 -215 8 -19
21 -60 30 -90 9 -30 32 -107 51 -170 34 -115 74 -262 101 -375 8 -33 19 -74
24 -90 22 -70 136 -634 150 -742 5 -39 13 -98 19 -130 5 -32 12 -87 16 -123 3
-36 10 -92 15 -125 45 -287 65 -645 65 -1165 0 -638 -13 -822 -106 -1495 -19
-139 -78 -463 -113 -615 -8 -36 -18 -81 -21 -100 -4 -19 -12 -55 -20 -80 -21
-74 -44 -161 -61 -235 -17 -73 -27 -108 -75 -265 -17 -52 -37 -117 -45 -145
-42 -143 -127 -388 -188 -541 -20 -50 -36 -96 -36 -102 0 -6 -6 -23 -14 -39
-18 -36 -38 -84 -66 -153 -107 -267 -417 -893 -533 -1077 -13 -21 -41 -69 -62
-108 -21 -38 -43 -77 -49 -85 -7 -8 -29 -44 -51 -80 -21 -36 -68 -109 -104
-164 -36 -54 -70 -105 -76 -114 -258 -405 -712 -969 -1120 -1391 -151 -156
-427 -416 -600 -565 -49 -42 -117 -101 -149 -129 -33 -29 -69 -59 -81 -67 -12
-8 -66 -51 -121 -95 -54 -44 -142 -112 -194 -151 -52 -39 -113 -84 -135 -100
-110 -82 -408 -281 -550 -369 -60 -37 -126 -78 -145 -90 -37 -25 -198 -118
-290 -168 -30 -16 -59 -33 -65 -37 -13 -11 -571 -290 -579 -290 -3 0 -34 -14
-68 -31 -35 -17 -117 -53 -183 -80 -66 -28 -133 -57 -150 -64 -16 -8 -55 -23
-85 -34 -30 -12 -98 -37 -150 -57 -152 -58 -253 -95 -285 -104 -44 -13 -116
-36 -145 -48 -14 -5 -50 -17 -80 -26 -30 -9 -100 -29 -155 -46 -173 -52 -198
-59 -300 -84 -55 -13 -134 -33 -175 -44 -121 -32 -253 -60 -450 -97 -102 -19
-207 -40 -235 -45 -52 -11 -376 -54 -525 -70 -47 -5 -119 -14 -161 -19 -184
-24 -499 -36 -949 -36 -261 0 -506 3 -545 7 -38 4 -117 10 -175 13 -98 6 -178
14 -360 35 -396 47 -589 77 -890 140 -206 43 -214 44 -465 109 -153 40 -385
106 -470 135 -22 8 -67 21 -100 31 -33 9 -69 21 -80 25 -26 12 -101 39 -145
52 -50 14 -397 146 -445 168 -22 10 -80 35 -129 55 -49 19 -126 53 -170 74
-312 149 -538 260 -579 284 -27 15 -103 57 -170 94 -115 62 -330 188 -407 238
-489 318 -718 483 -1055 760 -110 91 -150 125 -305 264 -904 809 -1684 1834
-2215 2911 -157 317 -272 579 -374 850 -17 47 -38 99 -45 115 -39 89 -219 656
-255 800 -5 22 -24 94 -41 160 -87 333 -167 753 -214 1125 -14 113 -31 239
-37 280 -21 151 -46 643 -48 940 -1 296 8 571 29 850 11 138 73 644 90 735 5
28 17 95 25 150 9 55 22 129 30 165 7 36 18 92 25 125 29 149 59 281 85 380 9
33 21 78 25 100 11 50 53 205 73 265 8 25 23 72 32 105 28 97 56 189 65 210 5
11 11 29 13 40 8 30 85 252 112 320 13 33 40 103 60 155 45 118 140 341 207
490 34 75 277 562 304 610 14 25 58 101 97 170 165 292 337 558 592 918 136
192 586 743 645 792 4 3 30 32 60 65 207 233 628 635 915 874 61 50 128 106
150 124 66 56 332 257 450 341 124 88 527 356 550 365 6 2 48 27 95 56 47 28
114 68 150 89 36 20 72 41 80 46 179 118 949 482 1260 594 41 15 107 40 145
55 39 16 99 38 135 50 36 12 119 39 185 61 128 43 175 58 270 85 33 10 87 26
120 37 33 11 87 26 120 33 33 7 114 28 180 45 324 87 827 177 1250 225 77 8
176 20 220 25 44 5 184 14 310 20 127 6 244 12 260 14 89 9 588 4 835 -9z"/>
<path d="M9655 19550 c-104 -4 -248 -12 -320 -19 -541 -49 -719 -72 -974 -122
-30 -6 -77 -15 -105 -19 -52 -8 -159 -29 -276 -54 -100 -21 -449 -106 -473
-116 -12 -4 -76 -23 -142 -40 -66 -18 -135 -38 -153 -46 -18 -8 -39 -14 -47
-14 -8 0 -29 -6 -47 -14 -18 -8 -100 -36 -183 -62 -82 -27 -161 -54 -175 -61
-14 -7 -29 -13 -34 -13 -10 0 -424 -164 -491 -195 -27 -12 -84 -37 -125 -55
-133 -58 -491 -235 -640 -317 -221 -121 -239 -132 -330 -187 -47 -28 -93 -55
-102 -61 -88 -52 -136 -83 -288 -183 -96 -64 -179 -120 -185 -124 -12 -11
-111 -82 -185 -133 -89 -61 -442 -337 -479 -373 -7 -7 -52 -46 -100 -85 -354
-294 -835 -783 -1166 -1183 -49 -60 -94 -114 -100 -120 -5 -7 -19 -24 -30 -39
-11 -16 -49 -65 -83 -109 -56 -72 -208 -278 -255 -346 -341 -496 -582 -910
-822 -1412 -89 -188 -231 -523 -297 -703 -69 -187 -129 -359 -138 -391 -4 -18
-10 -37 -14 -43 -4 -6 -13 -32 -20 -58 -29 -105 -86 -301 -100 -343 -13 -38
-45 -168 -121 -485 -8 -33 -24 -112 -35 -175 -12 -63 -29 -160 -40 -215 -10
-55 -23 -131 -29 -170 -7 -38 -16 -95 -21 -125 -5 -30 -14 -104 -20 -164 -6
-60 -13 -112 -15 -116 -2 -3 -9 -67 -14 -141 -6 -74 -15 -173 -20 -221 -5 -48
-15 -233 -22 -410 -12 -329 -2 -847 21 -1063 5 -49 14 -142 20 -205 29 -316
78 -645 155 -1030 36 -180 114 -497 158 -645 13 -44 38 -129 56 -190 17 -60
38 -126 45 -145 8 -19 31 -87 51 -150 21 -63 46 -137 57 -165 11 -27 37 -98
58 -156 21 -58 49 -130 63 -160 14 -30 37 -85 52 -124 15 -38 40 -98 56 -132
16 -34 38 -85 49 -113 56 -142 324 -657 477 -917 141 -240 390 -619 519 -790
19 -26 44 -59 54 -73 71 -95 235 -306 261 -335 10 -11 70 -83 135 -160 314
-373 811 -863 1189 -1170 54 -44 114 -94 134 -111 31 -27 289 -222 421 -319
57 -41 367 -249 440 -295 98 -61 264 -161 305 -185 398 -227 809 -430 1160
-571 61 -24 119 -49 130 -54 11 -5 43 -18 70 -28 28 -10 59 -22 70 -27 60 -24
345 -123 390 -136 17 -4 57 -17 90 -29 33 -12 83 -27 110 -35 28 -8 74 -21
103 -30 28 -8 76 -22 105 -30 28 -9 97 -27 152 -41 55 -14 159 -40 230 -59 72
-18 193 -45 270 -59 77 -15 174 -33 215 -41 188 -37 452 -75 700 -100 85 -8
196 -20 245 -25 215 -24 756 -34 1127 -21 200 6 390 16 423 21 33 5 120 14
193 20 422 35 908 120 1432 250 251 62 690 200 935 293 22 9 76 29 120 45 358
132 838 357 1230 577 116 65 312 179 325 189 8 7 44 29 80 51 82 49 323 209
415 275 39 27 81 58 95 67 243 166 630 483 950 778 195 179 568 565 706 730
32 39 86 102 119 140 91 105 251 308 332 420 39 55 82 114 96 130 23 29 89
123 192 275 99 146 306 480 383 620 13 25 32 59 42 75 74 128 330 640 330 660
0 3 19 45 41 93 23 48 68 152 101 232 55 133 80 199 168 440 52 142 95 274
151 465 4 17 17 59 27 95 11 36 24 83 30 105 6 22 20 72 30 110 30 108 100
408 122 525 11 58 24 128 30 155 41 209 99 631 115 835 3 41 10 111 16 155 28
221 33 1078 9 1400 -31 422 -77 784 -133 1075 -8 41 -23 120 -32 175 -20 115
-153 660 -183 750 -11 33 -28 89 -36 125 -17 68 -176 542 -207 615 -5 11 -20
49 -33 85 -99 268 -340 795 -476 1040 -26 47 -78 141 -116 210 -107 196 -387
637 -513 810 -22 30 -57 79 -78 109 -70 98 -78 109 -138 187 -153 198 -174
223 -345 424 -113 134 -144 168 -290 324 -93 99 -321 327 -420 422 -158 149
-508 452 -541 468 -10 5 -19 13 -19 17 0 4 -32 31 -71 59 -39 29 -83 62 -98
75 -88 78 -466 342 -738 516 -291 186 -784 454 -1108 601 -44 20 -114 52 -155
70 -41 19 -113 49 -160 68 -47 18 -109 44 -138 57 -105 48 -625 229 -767 268
-27 7 -129 36 -225 63 -96 28 -227 63 -290 77 -63 14 -160 37 -215 50 -101 24
-223 47 -550 104 -180 31 -454 64 -695 82 -74 5 -187 14 -250 19 -170 13 -727
19 -945 10z m37 -262 c8 -13 29 -75 47 -138 49 -167 101 -322 117 -347 8 -13
24 -23 37 -23 41 0 49 -14 50 -86 l2 -69 -165 -11 c-192 -13 -190 -14 -190 76
0 48 4 60 25 78 19 17 23 26 16 44 -7 20 -16 23 -67 26 -79 4 -102 -3 -110
-34 -5 -20 -1 -31 19 -48 19 -16 26 -33 30 -73 2 -28 0 -58 -4 -65 -10 -16
-243 -38 -276 -27 -20 8 -23 15 -23 66 0 68 6 79 43 88 34 9 37 14 52 89 7 34
23 104 35 156 29 125 29 122 1 136 -13 7 -28 18 -32 26 -13 20 -11 126 3 134
7 4 80 11 163 14 82 4 164 7 181 8 23 2 36 -4 46 -20z m1653 -63 c39 -8 95
-17 127 -20 31 -4 58 -12 61 -19 3 -7 1 -30 -4 -52 -5 -21 -11 -51 -14 -66 -3
-16 -12 -28 -20 -28 -7 0 -17 -5 -20 -10 -6 -10 10 -204 21 -257 8 -41 34 -26
60 35 14 31 39 84 55 116 35 71 35 73 8 102 -17 18 -19 26 -10 42 6 12 11 38
11 60 0 23 5 42 13 45 6 2 73 -6 147 -19 74 -13 136 -23 138 -24 7 -1 -11
-126 -20 -137 -5 -6 -22 -15 -38 -18 -21 -5 -38 -21 -60 -56 -16 -27 -30 -52
-30 -55 0 -3 -28 -60 -62 -127 -34 -67 -77 -153 -96 -191 l-33 -68 -42 6 c-23
4 -82 13 -130 19 -58 8 -91 17 -97 27 -4 8 -13 53 -19 100 -15 113 -52 369
-58 399 -2 13 -17 37 -34 52 -26 25 -29 32 -24 71 15 107 8 104 170 73z
m-2789 -76 c109 -57 116 -66 138 -189 10 -58 22 -118 26 -135 5 -16 12 -56 16
-87 l6 -57 -71 -89 c-58 -72 -78 -91 -104 -95 -18 -3 -61 -10 -97 -15 -36 -6
-85 -15 -110 -20 -253 -58 -242 -60 -255 37 -7 53 -7 55 26 82 l33 27 -17 93
c-10 52 -22 119 -28 149 -16 86 -18 89 -59 100 -42 11 -46 17 -55 102 l-7 57
38 6 c74 12 210 36 304 55 52 10 104 19 116 19 11 1 56 -17 100 -40z m4024
-184 c25 -8 79 -23 120 -36 180 -53 296 -91 307 -102 10 -10 5 -34 -24 -116
-35 -99 -38 -103 -62 -97 -100 20 -111 27 -111 66 0 34 -10 42 -77 63 -80 26
-89 24 -103 -29 -16 -55 -12 -59 72 -88 70 -24 77 -36 54 -90 -18 -42 -33 -45
-104 -17 -31 12 -53 16 -64 10 -19 -10 -45 -97 -32 -108 5 -5 38 -18 74 -30
l64 -21 33 32 c29 28 35 30 58 20 14 -7 36 -12 48 -12 41 0 59 -37 38 -78 -5
-9 -17 -46 -27 -82 -22 -81 -33 -94 -65 -81 -27 11 -185 60 -274 85 -33 10
-78 23 -100 30 -22 8 -60 19 -85 26 -101 27 -100 26 -68 110 20 53 27 60 57
60 33 0 44 11 59 60 87 276 88 285 42 310 -11 6 -20 18 -20 26 0 24 32 118 43
126 6 3 31 -1 56 -9 25 -8 66 -21 91 -28z m-5229 -162 c34 -54 87 -136 117
-183 30 -47 63 -97 73 -112 11 -15 19 -32 19 -37 0 -16 40 -33 63 -27 34 8 54
-11 72 -68 25 -81 29 -77 -120 -121 -33 -10 -69 -22 -80 -26 -99 -43 -117 -41
-128 11 -3 14 -11 39 -18 57 -11 28 -11 34 4 51 21 23 22 46 1 62 -12 11 -25
10 -72 -4 -69 -22 -82 -32 -82 -62 0 -15 9 -27 27 -36 19 -9 34 -30 50 -73 13
-32 19 -63 15 -67 -10 -10 -238 -88 -258 -88 -16 0 -40 49 -51 102 -5 26 -2
35 22 54 l28 22 -3 124 c-1 67 -3 146 -4 173 -1 60 -10 75 -40 75 -30 0 -39
12 -61 79 -17 52 -17 55 0 67 10 8 43 21 74 30 31 8 106 33 166 54 61 21 113
39 116 39 4 1 35 -43 70 -96z m6274 -192 c44 -21 91 -42 105 -46 14 -4 60 -25
103 -46 43 -21 88 -41 100 -45 29 -9 40 -24 88 -122 49 -99 49 -108 -13 -242
-24 -52 -55 -120 -68 -150 -13 -30 -31 -62 -39 -71 -9 -9 -64 -29 -122 -44
l-106 -27 -56 26 c-31 14 -121 53 -199 87 -79 34 -151 69 -161 79 -18 17 -18
19 3 61 34 67 47 78 84 72 30 -5 33 -2 51 39 10 23 40 89 66 145 27 57 49 108
50 115 4 21 -11 56 -26 62 -8 3 -15 12 -15 19 0 26 50 127 62 127 7 0 49 -17
93 -39z m-7261 -76 c6 -10 22 -37 34 -58 l24 -39 -32 -33 -31 -32 111 -227
c60 -124 110 -232 110 -239 0 -14 -141 -87 -169 -87 -16 0 -259 156 -330 212
-45 35 -45 4 1 -83 43 -83 43 -84 82 -84 36 0 41 -3 67 -50 15 -27 28 -56 28
-63 1 -16 -266 -145 -285 -138 -14 6 -54 90 -54 116 0 9 9 25 20 35 11 10 20
23 20 28 0 22 -137 299 -153 309 -6 3 -25 4 -43 1 -31 -5 -34 -3 -64 56 -17
34 -28 66 -24 72 7 12 243 129 260 129 6 0 29 -13 50 -30 22 -16 44 -33 49
-37 6 -5 39 -28 75 -52 36 -25 80 -57 98 -73 36 -31 62 -36 62 -13 0 13 -54
121 -67 135 -3 3 -21 5 -41 5 -33 0 -38 5 -68 55 -28 48 -31 58 -20 75 7 10
26 23 42 27 16 5 70 30 119 57 50 27 96 48 104 47 8 0 19 -10 25 -21z m4076
-196 c482 -34 803 -70 1040 -119 25 -5 86 -16 135 -25 225 -40 672 -147 813
-194 31 -11 73 -24 92 -29 229 -65 663 -226 887 -328 28 -13 54 -24 57 -24 5
0 303 -141 337 -160 9 -5 93 -49 185 -98 93 -49 204 -110 247 -136 43 -25 80
-46 82 -46 8 0 382 -239 465 -297 271 -189 255 -177 490 -365 765 -612 1395
-1320 1897 -2133 96 -154 258 -436 300 -520 16 -33 55 -109 85 -170 31 -60 70
-141 88 -180 18 -38 50 -106 70 -150 20 -44 41 -91 45 -105 4 -14 18 -47 30
-75 164 -356 380 -1050 470 -1505 9 -47 23 -115 31 -151 40 -180 80 -478 119
-874 22 -234 24 -282 21 -745 -3 -477 -19 -784 -45 -890 -5 -19 -12 -69 -15
-110 -6 -74 -10 -103 -42 -295 -17 -101 -92 -486 -118 -605 -26 -118 -126
-472 -182 -645 -77 -239 -135 -395 -259 -695 -89 -215 -274 -593 -392 -800
-82 -143 -168 -290 -209 -355 -76 -120 -207 -319 -218 -332 -6 -6 -31 -41 -56
-77 -109 -160 -433 -569 -552 -698 -7 -7 -55 -61 -107 -118 -207 -230 -515
-523 -846 -804 -156 -133 -474 -368 -690 -510 -193 -128 -315 -206 -320 -206
-2 0 -45 -25 -95 -55 -50 -30 -93 -55 -96 -55 -2 0 -21 -11 -42 -23 -97 -62
-486 -257 -672 -339 -25 -11 -53 -24 -62 -29 -10 -5 -64 -27 -120 -50 -57 -22
-116 -46 -133 -54 -16 -7 -50 -21 -75 -30 -25 -9 -61 -23 -80 -30 -208 -81
-521 -182 -724 -235 -88 -23 -163 -43 -167 -45 -18 -12 -539 -121 -689 -144
-197 -32 -499 -69 -740 -92 -184 -17 -851 -23 -1070 -10 -272 17 -647 55 -785
79 -33 6 -91 16 -130 22 -180 29 -586 110 -685 136 -30 9 -98 27 -150 40 -232
61 -472 137 -705 224 -60 23 -123 45 -140 50 -16 4 -54 20 -82 34 -29 14 -59
26 -65 26 -7 0 -22 7 -32 15 -11 8 -25 15 -32 15 -23 0 -356 152 -549 250
-277 142 -618 336 -777 444 -148 100 -340 231 -363 249 -16 12 -75 56 -130 97
-193 144 -493 396 -694 585 -227 213 -558 568 -746 800 -53 66 -104 129 -113
140 -70 84 -303 408 -402 560 -142 217 -161 247 -264 430 -43 77 -86 151 -95
165 -20 30 -260 510 -280 560 -8 19 -24 58 -37 85 -39 87 -130 310 -171 420
-8 22 -21 55 -29 73 -8 18 -14 37 -14 43 0 6 -6 25 -14 42 -23 52 -124 361
-165 507 -68 245 -106 404 -161 685 -57 292 -60 309 -60 339 0 15 -7 64 -15
109 -17 97 -33 233 -45 372 -5 55 -14 159 -20 230 -15 163 -15 904 -1 1080 6
72 13 162 16 200 13 162 63 533 95 705 16 85 38 202 49 260 26 135 57 277 81
365 11 39 33 122 50 185 46 172 139 463 201 630 17 47 39 108 49 136 10 28 34
91 55 140 20 49 46 112 57 139 11 28 36 83 54 123 19 41 34 75 34 78 0 7 250
506 259 518 5 6 26 42 46 80 20 38 46 83 56 100 10 17 23 40 28 51 5 11 45 78
90 148 45 71 81 130 81 133 0 2 23 36 51 76 28 40 83 120 122 178 74 111 279
386 356 481 257 313 508 585 777 839 124 118 421 378 490 430 18 14 81 63 140
110 129 102 189 146 397 287 146 100 463 303 473 303 3 0 23 12 47 27 23 15
65 39 92 54 28 14 73 39 100 55 67 40 295 157 397 204 24 11 50 24 58 28 8 5
31 16 50 25 82 36 227 101 255 113 64 28 284 113 370 144 50 18 110 40 135 50
25 10 106 36 180 59 74 23 145 46 158 51 50 21 461 129 622 163 151 32 437 86
515 97 422 57 453 60 860 89 165 12 670 12 835 0z m4285 -287 c211 -125 206
-119 152 -200 -28 -41 -31 -43 -67 -37 -43 7 -46 4 -116 -118 -48 -84 -53 -93
-83 -140 l-23 -38 27 -29 c15 -16 26 -32 24 -37 -19 -43 -67 -113 -78 -113
-27 0 -291 163 -291 179 0 9 14 38 31 65 29 45 33 48 64 43 19 -3 40 0 48 6
18 14 177 279 177 295 0 6 -6 15 -12 19 -39 24 -40 39 -6 94 49 80 38 79 153
11z m-9457 -142 c35 -54 40 -78 17 -86 -8 -3 -17 -14 -20 -25 -6 -17 3 -33 67
-124 4 -5 47 -68 94 -140 48 -71 96 -141 106 -154 23 -30 18 -37 -79 -97 l-75
-47 -186 92 c-113 56 -189 88 -194 83 -6 -6 11 -40 42 -87 42 -61 56 -76 71
-71 10 3 27 9 38 12 13 4 27 -7 55 -45 20 -28 36 -58 36 -66 0 -18 -247 -185
-264 -179 -17 7 -71 104 -68 121 2 9 10 22 18 30 22 23 17 37 -44 125 -31 46
-72 106 -90 135 -36 56 -54 68 -82 53 -10 -6 -21 -10 -24 -10 -9 0 -97 113
-94 121 5 14 231 159 248 159 16 0 75 -29 268 -131 76 -41 92 -47 92 -32 0 10
-10 29 -21 43 -11 14 -31 42 -45 62 -23 36 -26 37 -67 32 -41 -5 -43 -3 -74
40 -39 53 -41 79 -10 93 12 6 63 40 112 76 112 81 129 83 173 17z m10167 -307
c18 -16 65 -53 105 -83 40 -30 82 -62 93 -71 20 -16 20 -17 -26 -76 -40 -52
-49 -59 -74 -56 -23 4 -33 -3 -60 -38 -18 -24 -33 -46 -33 -50 0 -13 24 -15
105 -9 80 5 80 5 77 32 -3 28 56 122 81 131 13 4 246 -168 253 -188 6 -16 -66
-115 -84 -115 -7 0 -30 9 -50 19 -47 24 -167 19 -181 -8 -5 -9 -14 -52 -21
-96 -6 -44 -16 -102 -22 -128 -9 -44 -8 -52 11 -78 27 -36 23 -50 -29 -109
-30 -34 -42 -43 -53 -35 -8 6 -37 28 -64 50 -28 22 -78 60 -112 84 -33 24 -61
51 -61 60 0 26 84 111 109 111 28 0 43 39 39 99 l-3 46 -44 3 c-34 3 -48 -2
-68 -20 -20 -19 -23 -29 -18 -59 6 -33 2 -44 -31 -88 -21 -28 -42 -51 -47 -51
-4 0 -46 29 -92 64 -132 101 -165 129 -165 139 0 5 17 32 37 59 37 48 38 48
80 42 39 -6 45 -4 70 27 16 18 35 42 43 55 8 12 43 58 78 102 34 45 62 85 62
90 0 5 -9 17 -20 27 -11 10 -20 24 -20 30 0 17 79 115 92 115 6 0 25 -12 43
-27z m-11340 -558 c33 -23 119 -81 190 -130 72 -48 137 -94 146 -101 21 -19
41 -18 79 4 l31 17 44 -50 c25 -27 45 -55 45 -62 0 -12 -26 -38 -164 -161 -91
-81 -93 -81 -150 -6 -28 37 -33 50 -26 65 8 14 6 23 -10 39 -12 12 -25 20 -30
18 -25 -9 -110 -92 -110 -108 0 -25 26 -43 51 -37 16 4 32 -6 65 -41 24 -26
44 -52 44 -58 0 -15 -18 -34 -100 -105 -41 -35 -79 -70 -83 -76 -16 -26 -46
-12 -86 38 l-41 52 21 34 22 35 -36 72 c-19 39 -54 111 -77 159 -22 48 -47 90
-55 93 -7 3 -23 0 -35 -6 -18 -10 -26 -5 -65 37 -50 53 -55 75 -25 96 12 8 42
34 68 58 118 110 204 179 215 172 7 -4 39 -25 72 -48z m12474 -412 c116 -115
211 -215 211 -223 0 -9 -36 -51 -80 -95 l-80 -79 -41 39 c-57 56 -63 70 -43
100 17 25 16 27 -17 62 -50 53 -81 83 -87 83 -14 0 -72 -65 -71 -79 0 -9 22
-34 49 -56 27 -22 49 -48 49 -58 1 -17 -55 -76 -72 -77 -5 0 -29 23 -54 50
-25 28 -52 50 -61 50 -19 0 -82 -59 -82 -76 0 -13 108 -124 120 -124 4 0 17 9
30 20 l24 21 48 -48 c26 -26 48 -52 48 -58 0 -13 -148 -165 -161 -165 -6 0
-108 97 -227 215 l-216 214 54 51 c57 53 70 59 90 35 7 -8 18 -15 24 -15 6 0
67 56 136 125 l125 125 -17 31 c-13 21 -15 36 -8 48 9 17 86 91 94 91 2 0 99
-93 215 -207z m-13247 -279 c59 -50 63 -59 39 -97 -15 -24 -21 -54 -23 -112
l-3 -79 45 -12 c101 -28 217 -54 241 -54 15 0 32 7 39 15 7 8 17 15 22 15 18
0 108 -83 108 -99 0 -9 -22 -39 -48 -67 -26 -28 -69 -76 -95 -107 -27 -32 -55
-57 -63 -57 -8 0 -35 17 -60 37 -36 30 -44 43 -44 70 0 28 -4 33 -27 38 -16 3
-45 9 -65 14 -48 10 -58 3 -64 -46 -3 -30 1 -46 17 -67 19 -24 27 -27 56 -21
30 5 40 1 83 -35 28 -23 50 -48 50 -54 0 -7 -9 -24 -21 -37 -142 -166 -182
-209 -191 -209 -16 0 -108 82 -108 97 0 7 7 24 15 37 15 23 14 25 -52 82 -37
32 -96 84 -130 116 -62 59 -91 70 -113 43 -7 -8 -20 -15 -28 -15 -17 0 -102
78 -102 93 0 8 70 99 90 117 3 3 30 33 59 68 30 34 57 62 61 62 4 0 31 -21 59
-46 44 -40 51 -51 46 -73 -5 -22 2 -34 35 -66 53 -51 62 -41 58 66 -3 80 -4
84 -28 89 -29 6 -106 59 -114 78 -4 8 0 22 7 32 22 31 192 219 199 220 3 0 26
-16 50 -36z m-2219 -5944 c25 -29 60 -39 71 -21 9 14 52 19 71 8 9 -5 23 -24
31 -43 13 -30 18 -34 53 -34 54 0 83 -26 90 -81 5 -38 11 -47 43 -64 50 -26
59 -50 37 -94 l-17 -35 34 -42 c19 -22 34 -48 34 -57 0 -8 -17 -29 -37 -46
l-36 -30 17 -39 c25 -54 18 -74 -31 -97 -40 -18 -43 -22 -43 -59 0 -51 -31
-86 -76 -86 -43 0 -64 -9 -64 -27 0 -43 -67 -92 -85 -62 -4 5 -18 14 -32 20
-20 8 -29 4 -60 -26 -20 -19 -42 -35 -49 -35 -6 0 -31 16 -54 35 l-41 34 -40
-20 c-21 -12 -45 -19 -53 -16 -7 3 -23 26 -36 51 -21 44 -24 46 -65 46 -36 0
-48 5 -65 27 -15 19 -20 36 -16 55 6 31 -2 41 -54 66 -39 19 -43 41 -19 99 12
30 11 32 -24 67 -20 20 -37 41 -37 48 0 7 16 28 35 48 l36 37 -16 47 c-9 25
-13 51 -10 57 4 5 24 21 46 35 33 20 39 30 39 58 0 51 38 86 93 86 40 0 44 2
56 35 7 19 20 39 29 44 20 10 72 3 72 -10 0 -21 43 -7 67 21 17 20 34 30 53
30 19 0 36 -10 53 -30z m18022 0 c31 -32 65 -39 84 -16 26 31 100 -10 101 -56
0 -15 9 -18 45 -18 58 0 85 -25 85 -79 0 -36 4 -42 50 -71 54 -35 58 -43 35
-86 -20 -39 -19 -47 11 -75 47 -44 48 -54 7 -100 -35 -39 -36 -42 -24 -72 28
-67 21 -79 -59 -117 -9 -4 -16 -24 -18 -51 -4 -59 -24 -79 -78 -79 -40 0 -43
-2 -64 -44 -25 -53 -42 -61 -83 -41 -42 21 -55 19 -94 -15 -18 -16 -40 -30
-48 -30 -7 0 -30 15 -50 34 -37 35 -49 37 -90 9 -32 -21 -44 -16 -76 37 -29
48 -33 50 -74 50 -54 0 -75 25 -75 86 0 39 -3 43 -29 49 -16 3 -39 17 -52 31
l-24 25 24 41 23 40 -36 37 c-20 20 -36 44 -36 53 0 9 16 32 35 51 l35 35 -21
46 c-26 52 -22 62 41 92 37 17 40 22 40 59 0 62 21 85 79 85 45 0 48 1 65 39
20 48 45 58 88 37 43 -22 50 -20 83 14 16 17 38 30 50 30 12 0 34 -13 50 -30z
m-2775 -6566 l44 -46 -18 -33 c-10 -18 -17 -38 -15 -43 7 -18 232 -252 243
-252 16 0 116 102 116 118 0 8 -9 25 -20 39 -11 14 -20 31 -20 37 0 14 83 96
97 96 12 0 178 -168 178 -180 0 -14 -416 -430 -429 -430 -20 0 -96 85 -96 105
0 11 7 29 15 39 13 18 11 23 -28 65 -24 25 -82 84 -131 130 -81 78 -88 82
-105 67 -10 -9 -26 -16 -37 -16 -21 0 -104 79 -104 99 0 17 232 249 251 250 8
1 35 -20 59 -45z m-12068 -431 c27 -28 48 -46 122 -103 65 -51 68 -55 63 -89
-3 -20 -13 -88 -22 -151 -10 -63 -23 -134 -30 -157 -23 -74 7 -73 64 2 45 60
49 74 25 110 -15 23 -14 26 21 72 54 70 58 71 118 21 29 -24 68 -55 87 -70 19
-14 51 -40 70 -56 l34 -29 -39 -51 c-46 -60 -54 -65 -95 -49 -30 11 -33 10
-62 -23 -41 -47 -222 -275 -261 -327 -17 -24 -36 -43 -42 -43 -6 0 -43 28 -83
61 l-72 61 5 67 c4 36 10 84 16 106 5 22 14 76 19 120 6 44 13 92 16 108 10
43 -10 32 -70 -39 -58 -67 -67 -93 -41 -114 24 -20 17 -42 -29 -95 -43 -48
-44 -49 -68 -33 -14 9 -47 36 -74 59 -27 23 -70 58 -96 77 -27 18 -48 39 -48
46 0 7 17 34 37 60 31 40 41 47 62 43 15 -3 34 -7 45 -9 13 -2 47 33 128 134
l109 138 -21 30 c-23 33 -23 36 27 98 37 45 59 52 85 25z m11392 -201 c191
-151 358 -272 375 -272 11 0 23 5 26 10 14 23 52 9 88 -34 20 -25 37 -51 37
-58 0 -16 -243 -208 -263 -208 -8 0 -33 22 -56 49 -37 45 -40 52 -30 75 9 19
9 29 0 40 -25 29 -47 24 -101 -24 -46 -41 -52 -51 -46 -74 5 -22 12 -26 40
-26 28 0 40 -8 70 -44 37 -45 46 -80 24 -89 -7 -3 -55 -39 -107 -81 -58 -47
-98 -73 -106 -68 -7 4 -29 29 -50 56 l-37 49 21 28 c28 37 27 46 -11 126 -17
38 -34 77 -38 88 -4 11 -15 37 -24 58 -9 21 -16 44 -16 52 0 8 -9 24 -20 35
-16 16 -25 18 -40 10 -18 -10 -50 -4 -50 9 0 3 -16 23 -35 45 -19 21 -35 43
-35 50 0 6 30 35 68 63 37 28 105 81 152 117 46 36 88 66 93 66 5 0 37 -22 71
-48z m-10451 -505 c34 -24 95 -62 135 -86 73 -44 87 -66 57 -91 -8 -7 -15 -18
-15 -24 0 -7 -11 -23 -24 -35 -20 -19 -32 -22 -60 -17 -33 6 -37 4 -63 -36
-15 -24 -58 -90 -95 -147 -65 -98 -68 -104 -53 -125 8 -11 18 -27 22 -35 7
-16 -30 -91 -57 -116 -16 -15 -20 -14 -52 7 -19 13 -74 48 -122 78 -49 30 -99
64 -112 75 l-24 20 36 58 37 58 42 -6 41 -7 92 142 c51 78 92 146 92 151 0 5
-10 23 -21 39 l-22 29 37 55 c20 31 44 56 52 56 8 0 42 -19 77 -43z m9746 -5
c17 -27 31 -55 31 -62 0 -7 -15 -30 -34 -50 -35 -39 -73 -136 -64 -162 3 -8
53 -42 109 -75 149 -87 142 -84 179 -72 35 13 39 10 80 -68 l24 -45 -24 -20
c-13 -11 -45 -31 -70 -45 -25 -14 -70 -43 -102 -64 -31 -22 -63 -39 -72 -39
-8 0 -31 24 -49 53 -26 40 -33 60 -30 87 4 33 1 37 -47 63 -64 35 -73 34 -88
-6 -23 -63 -7 -108 39 -113 13 -1 27 -3 32 -3 4 -1 23 -26 43 -57 43 -66 44
-65 -72 -134 -46 -28 -100 -62 -120 -75 -20 -14 -43 -25 -50 -25 -13 0 -84
101 -84 120 0 5 9 15 20 22 28 18 25 43 -12 102 -17 28 -40 67 -51 86 -10 19
-35 61 -55 93 -35 58 -36 58 -74 52 -42 -7 -56 3 -98 77 l-21 37 43 27 c119
76 147 93 190 118 l47 28 23 -25 c13 -14 32 -41 42 -61 16 -31 17 -40 7 -60
-12 -21 -10 -29 14 -70 43 -73 58 -58 91 86 5 21 1 29 -20 40 -27 14 -86 98
-86 123 0 7 26 28 58 46 31 18 72 44 90 57 43 33 93 59 113 61 10 0 30 -19 48
-47z m-8905 -478 c160 -80 297 -151 303 -157 10 -10 0 -37 -44 -130 -32 -64
-65 -119 -74 -122 -9 -3 -33 5 -52 17 -19 13 -43 28 -53 34 -19 11 -19 13 1
69 19 57 19 57 0 72 -42 30 -56 15 -137 -142 -42 -82 -77 -157 -77 -166 -1 -9
10 -22 23 -29 36 -19 39 -37 14 -86 -41 -84 -36 -84 -208 3 -84 43 -155 84
-158 92 -3 7 7 38 22 68 l27 55 46 -4 46 -3 62 122 c34 68 70 134 79 148 24
36 17 68 -18 80 -30 10 -45 -1 -87 -65 l-16 -25 -62 29 c-33 16 -61 36 -61 43
0 25 114 243 127 243 3 0 137 -65 297 -146z m7959 -74 c29 -57 28 -83 -4 -100
-10 -6 -19 -17 -19 -25 0 -14 57 -143 113 -255 31 -64 33 -65 69 -62 36 3 38
1 68 -58 17 -33 28 -66 24 -72 -4 -5 -31 -21 -60 -34 -30 -13 -86 -40 -125
-59 -39 -19 -79 -35 -90 -35 -12 0 -27 17 -43 51 -28 55 -32 79 -15 96 15 15
3 62 -25 98 l-24 30 -66 -34 c-36 -18 -68 -37 -71 -42 -11 -16 46 -108 68
-111 23 -3 76 -87 77 -119 0 -11 -27 -30 -74 -53 -41 -20 -78 -36 -81 -36 -3
0 -30 -12 -60 -26 -30 -15 -61 -24 -69 -21 -8 3 -27 31 -42 62 l-26 57 26 27
c32 34 32 41 0 110 -15 31 -46 98 -70 149 l-43 93 -36 -3 c-19 -1 -39 2 -44 7
-19 21 -59 108 -55 120 3 6 28 23 57 35 29 13 89 41 135 61 45 21 88 36 95 33
7 -2 25 -32 40 -66 24 -55 25 -63 12 -78 -8 -9 -15 -22 -15 -29 0 -20 44 -91
56 -91 20 0 121 50 135 66 17 21 -19 84 -61 105 -22 11 -39 31 -57 72 -29 63
-24 80 25 92 15 4 70 28 122 55 52 27 102 48 110 47 8 -1 27 -27 43 -57z
m-7223 -260 c66 -23 110 -39 168 -60 17 -7 32 -18 32 -24 0 -6 -10 -39 -23
-71 -17 -44 -29 -61 -44 -63 -31 -5 -51 -32 -59 -80 -8 -52 -1 -53 88 -15 77
32 86 39 70 55 -15 15 -16 52 -2 76 5 9 15 30 20 46 9 25 14 28 43 24 39 -6
257 -84 270 -97 9 -9 -17 -107 -33 -124 -4 -5 -38 -10 -76 -11 -46 -1 -86 -10
-118 -24 l-49 -22 8 -48 c3 -26 12 -91 19 -145 12 -93 14 -99 47 -126 33 -29
34 -30 18 -58 -9 -15 -22 -45 -29 -66 -9 -29 -16 -37 -29 -34 -82 26 -286 108
-289 117 -4 10 9 44 40 106 6 12 21 27 34 33 13 6 24 16 24 23 -1 34 -28 112
-42 121 -20 13 -77 -19 -98 -55 -13 -24 -13 -29 3 -46 9 -10 17 -27 17 -38 0
-20 -31 -109 -42 -120 -6 -5 -55 10 -243 77 -33 11 -63 25 -66 30 -3 6 4 38
15 72 22 62 22 62 66 67 49 6 40 -10 105 175 10 28 24 65 31 83 21 49 17 78
-12 99 l-26 19 18 55 c29 90 26 90 144 49z m6207 -112 c6 -7 25 -60 43 -118
18 -58 35 -110 37 -117 6 -14 -91 -66 -115 -61 -8 2 -28 23 -42 48 -23 39 -31
45 -61 45 -27 0 -35 -4 -37 -22 -4 -29 97 -333 112 -334 6 -1 25 -2 41 -3 24
-1 34 -8 47 -36 10 -19 19 -50 20 -69 l3 -35 -80 -27 c-206 -68 -256 -82 -264
-73 -14 16 -41 93 -41 118 0 17 9 27 30 36 18 8 30 20 30 31 0 11 -20 81 -45
157 -25 75 -45 142 -45 148 0 26 -29 37 -60 24 -30 -13 -31 -14 -25 -69 3 -31
2 -61 -2 -66 -9 -12 -81 -35 -110 -35 -16 0 -24 15 -42 78 -12 42 -29 93 -38
113 -19 46 -14 83 12 87 11 2 36 9 55 16 19 7 60 21 90 29 30 9 91 28 135 42
44 14 125 39 180 56 55 17 107 35 115 40 22 12 46 11 57 -3z m-1140 -316 c6
-4 30 -46 51 -92 114 -243 184 -385 195 -392 7 -4 24 -8 38 -8 34 0 46 -15 60
-78 15 -63 3 -82 -49 -82 -20 0 -61 -6 -91 -14 -100 -25 -183 -38 -192 -29 -5
5 -14 35 -20 67 -10 53 -9 60 10 80 43 46 16 82 -52 72 -84 -13 -107 -25 -107
-55 0 -20 7 -31 25 -39 14 -7 27 -23 30 -39 3 -15 10 -43 16 -61 14 -44 0 -59
-59 -67 -26 -4 -77 -13 -113 -22 -97 -22 -109 -18 -125 42 -19 73 -18 81 20
103 32 19 35 25 40 84 3 34 10 111 16 170 5 59 7 114 4 122 -3 7 -18 16 -33
19 -24 5 -28 12 -40 72 -8 38 -10 70 -5 74 11 10 94 28 288 62 27 4 51 11 54
14 7 7 25 6 39 -3z m-3227 -71 c149 -19 178 -31 237 -96 l55 -60 -6 -55 c-8
-70 -20 -83 -66 -70 -19 5 -52 11 -73 13 -44 5 -40 2 -61 48 -15 33 -21 36
-79 46 -52 9 -65 8 -79 -5 -42 -36 -16 -63 92 -96 30 -10 67 -24 82 -32 14 -8
33 -14 41 -14 8 0 36 -21 61 -47 42 -44 46 -52 46 -99 0 -68 -17 -156 -33
-166 -148 -95 -134 -91 -255 -73 -195 29 -196 29 -268 121 -45 58 -45 58 -33
114 l11 53 74 -7 c94 -9 103 -12 110 -45 3 -14 7 -31 9 -37 5 -16 134 -35 157
-23 25 14 23 55 -4 73 -13 8 -70 30 -127 50 -56 19 -104 36 -105 38 -1 2 -21
25 -45 52 l-44 48 7 75 c4 41 11 85 16 98 5 14 40 45 77 70 57 38 73 44 103
39 19 -3 64 -9 100 -13z m2323 -121 c36 -27 68 -53 71 -58 2 -4 8 -51 12 -104
l7 -97 -42 -41 c-22 -22 -41 -47 -41 -55 0 -25 71 -115 90 -115 29 0 38 -21
42 -95 l3 -70 -90 -7 c-102 -7 -89 -15 -165 97 -90 133 -111 156 -133 153 -19
-3 -22 -11 -25 -50 l-3 -47 40 -11 c23 -6 41 -16 42 -23 0 -7 3 -38 5 -69 5
-53 3 -59 -18 -67 -37 -15 -311 -30 -325 -19 -8 7 -13 36 -13 78 0 67 0 68 31
79 l32 11 -7 137 c-11 200 -14 215 -52 225 -34 9 -38 17 -50 104 -5 40 -3 52
9 57 8 3 104 11 213 17 110 7 201 14 203 16 2 2 25 4 51 4 41 0 56 -7 113 -50z
m-1350 13 c4 -2 7 -33 7 -68 0 -57 -3 -66 -27 -85 l-28 -22 -3 -163 c-4 -192
-4 -192 87 -194 48 0 62 3 70 17 9 17 28 278 23 317 -1 11 -14 29 -27 40 -23
19 -24 24 -17 85 l7 65 70 3 c39 1 108 -1 155 -5 l85 -8 3 -57 c3 -65 -10 -98
-39 -98 -11 0 -24 -10 -29 -22 -6 -13 -14 -108 -18 -213 l-7 -189 -65 -53 -65
-53 -95 0 c-52 0 -126 3 -164 7 -67 6 -71 8 -129 62 l-59 57 1 114 c1 63 4
157 7 207 l7 92 -29 11 c-38 15 -44 26 -44 87 0 90 -8 86 164 78 83 -4 154 -9
159 -12z"/>
<path d="M9512 19068 c-5 -7 -13 -32 -17 -55 -6 -39 -5 -44 20 -55 21 -9 28
-9 42 4 14 15 14 21 -2 67 -17 53 -25 60 -43 39z"/>
<path d="M8352 19000 c-19 -4 -38 -12 -42 -16 -7 -8 2 -67 43 -267 6 -32 14
-62 18 -68 9 -16 106 1 135 24 30 23 30 41 -5 206 -14 67 -27 109 -39 117 -19
15 -59 16 -110 4z"/>
<path d="M7180 18583 c0 -72 9 -88 44 -79 38 9 42 31 16 79 -42 76 -60 76 -60
0z"/>
<path d="M13681 18318 c-68 -148 -110 -251 -105 -260 10 -16 83 -48 112 -48
40 0 63 29 116 146 52 114 56 142 24 170 -24 20 -91 54 -108 54 -6 0 -23 -28
-39 -62z"/>
<path d="M9758 18210 c-135 -4 -299 -13 -365 -19 -65 -6 -167 -16 -228 -21
-168 -16 -258 -27 -421 -55 -82 -14 -202 -35 -268 -45 -65 -11 -122 -23 -127
-26 -5 -3 -41 -11 -81 -19 -92 -17 -437 -105 -543 -138 -44 -14 -114 -35 -155
-47 -41 -12 -100 -31 -130 -41 -30 -11 -95 -34 -145 -50 -148 -50 -522 -201
-695 -281 -133 -62 -442 -219 -557 -284 -65 -36 -138 -78 -163 -92 -25 -14
-85 -50 -135 -80 -49 -30 -106 -64 -125 -76 -19 -11 -64 -41 -100 -65 -36 -24
-114 -78 -175 -119 -593 -403 -1195 -954 -1670 -1527 -27 -33 -52 -62 -55 -65
-4 -3 -13 -14 -21 -26 -8 -12 -31 -41 -51 -65 -82 -97 -408 -548 -408 -565 0
-2 -15 -25 -34 -51 -65 -92 -258 -417 -351 -593 -82 -155 -259 -516 -270 -550
-4 -14 -22 -56 -40 -95 -17 -38 -47 -108 -64 -155 -18 -47 -46 -116 -62 -155
-138 -333 -332 -1031 -404 -1450 -14 -82 -32 -185 -40 -229 -62 -334 -122
-1263 -82 -1279 6 -2 1276 -5 2820 -6 2528 -1 2808 1 2814 15 3 8 -3 34 -13
57 -15 33 -19 65 -19 157 0 108 2 119 31 181 18 37 48 84 68 106 20 22 36 46
36 52 0 6 -8 37 -18 69 -11 31 -26 84 -36 117 -17 61 -58 205 -81 285 -7 25
-30 104 -50 175 -20 72 -43 151 -51 176 -7 25 -21 108 -30 185 -15 120 -15
155 -5 252 19 174 69 321 149 439 21 32 72 121 112 198 169 325 223 407 333
511 72 69 174 131 252 154 22 6 73 15 112 19 59 7 95 19 185 64 134 66 194 84
348 102 154 18 338 1 525 -50 116 -31 143 -37 205 -46 121 -18 274 6 500 80
182 60 221 71 244 71 12 0 45 7 73 15 45 14 60 27 161 143 159 183 250 241
378 242 83 0 149 -24 295 -107 222 -125 441 -224 616 -277 82 -25 281 -73 358
-86 150 -26 320 34 437 154 72 73 91 103 114 179 43 141 -1 262 -156 433 -45
49 -89 105 -99 124 -75 146 -64 281 30 369 20 19 21 25 12 63 -19 78 -82 282
-113 368 -17 47 -40 117 -50 155 -11 39 -33 111 -51 160 -17 50 -38 115 -45
145 -8 30 -37 125 -64 210 -27 85 -60 194 -74 241 -13 47 -32 103 -40 124
l-16 38 -63 -7 c-225 -23 -556 -121 -862 -256 -55 -24 -181 -86 -205 -100 -8
-4 -49 -25 -90 -46 -41 -20 -86 -44 -100 -54 -42 -29 -329 -165 -430 -204 -52
-20 -104 -41 -115 -46 -36 -17 -258 -88 -341 -109 -234 -59 -525 -101 -564
-81 -15 8 -62 139 -124 350 -48 161 -118 385 -160 514 -20 60 -36 115 -36 122
0 14 43 30 57 21 21 -13 410 51 543 89 159 46 362 117 461 162 24 11 71 31
104 45 72 31 274 134 365 187 79 46 353 178 440 212 72 29 312 111 360 124
109 30 361 84 389 84 59 0 76 24 50 71 -21 40 -38 123 -28 141 15 29 42 38 70
25 25 -13 39 -49 109 -277 18 -58 54 -175 80 -260 26 -85 56 -182 65 -215 10
-33 35 -114 56 -180 71 -223 138 -440 164 -530 15 -49 44 -144 65 -210 21 -66
64 -203 95 -305 31 -102 79 -257 106 -345 27 -88 57 -185 66 -215 8 -30 23
-75 33 -100 16 -43 18 -45 61 -48 24 -2 48 -7 52 -11 4 -4 5 -34 1 -66 -5 -44
-11 -59 -26 -63 -26 -6 -23 -37 13 -150 45 -144 44 -142 120 -222 124 -132
193 -251 224 -389 19 -84 11 -156 -32 -270 l-23 -65 20 -65 c12 -36 28 -82 35
-101 8 -19 21 -61 30 -93 9 -32 25 -67 36 -78 14 -14 17 -24 10 -37 -17 -32
58 -237 90 -247 17 -6 17 -8 4 -28 -13 -21 -10 -36 32 -167 25 -80 52 -167 59
-194 13 -46 77 -256 108 -351 7 -22 21 -67 31 -100 10 -33 24 -79 33 -102 16
-48 12 -72 -15 -72 -10 0 -30 -3 -45 -7 -32 -7 -33 -7 -79 146 -17 58 -42 137
-54 175 -13 39 -33 104 -45 145 -12 41 -25 86 -30 100 -43 128 -90 281 -90
292 0 8 -6 23 -14 33 -13 18 -16 18 -92 -17 -81 -36 -168 -66 -264 -89 -78
-18 -411 -15 -508 6 -40 8 -85 21 -101 29 -15 8 -70 22 -122 31 -52 9 -134 23
-182 32 -64 11 -92 12 -100 4 -8 -8 26 -46 122 -138 73 -69 143 -145 156 -167
46 -79 73 -180 66 -243 -1 -15 -31 -18 -31 -4 0 15 -42 58 -84 86 -68 46 -107
58 -191 58 -76 0 -122 -9 -260 -48 -136 -38 -221 -43 -418 -25 -124 12 -145 6
-194 -57 -54 -68 -74 -141 -72 -261 2 -108 2 -110 -46 -227 -44 -108 -46 -119
-51 -320 -30 -1215 -30 -1247 -9 -1269 14 -14 419 -15 3808 -16 2229 0 3798 4
3806 9 11 7 14 34 13 118 -3 149 -21 487 -33 608 -6 55 -14 145 -19 200 -5 55
-13 129 -19 165 -6 36 -18 117 -26 180 -9 63 -20 131 -25 150 -5 19 -18 89
-30 155 -23 131 -29 160 -96 435 -38 155 -107 394 -171 590 -49 151 -168 471
-199 534 -8 16 -14 34 -14 39 0 6 -13 38 -29 71 -15 34 -44 97 -64 141 -83
185 -177 373 -322 640 -122 226 -409 672 -570 885 -124 165 -185 243 -273 346
-53 64 -112 134 -130 157 -106 133 -517 552 -718 732 -334 300 -705 583 -1069
817 -123 79 -253 158 -260 158 -4 0 -30 16 -59 35 -156 103 -835 435 -1036
506 -30 11 -64 24 -75 28 -123 53 -363 139 -495 178 -47 13 -94 28 -105 33
-34 14 -195 60 -295 85 -52 13 -149 37 -216 54 -125 31 -317 71 -464 96 -47 8
-125 22 -175 31 -215 38 -664 81 -925 89 -102 3 -230 7 -285 9 -55 1 -211 0
-347 -4z"/>
<path d="M12757 13097 c-91 -95 -104 -106 -269 -233 -95 -72 -125 -113 -75
-101 12 3 56 12 97 21 90 18 211 55 299 90 36 14 70 26 75 26 6 0 23 10 38 23
l27 22 -40 123 c-22 67 -46 122 -52 121 -7 0 -52 -42 -100 -92z"/>
<path d="M12905 12825 c-22 -19 -43 -35 -47 -35 -4 0 -24 -12 -45 -26 -21 -14
-76 -44 -123 -66 -47 -22 -93 -44 -102 -49 -10 -5 -26 -9 -37 -9 -23 0 -45
-25 -35 -41 13 -22 198 1 409 50 22 6 52 12 68 16 32 6 34 21 11 91 -39 121
-39 121 -99 69z"/>
<path d="M7463 11568 c-33 -43 -43 -267 -19 -458 16 -128 25 -170 67 -315 57
-191 72 -237 89 -258 l17 -21 106 53 c81 40 117 65 152 103 43 48 45 53 45
112 0 68 -23 138 -68 211 -6 11 -61 101 -120 200 -60 99 -130 216 -157 260
-27 44 -55 90 -62 103 -15 24 -35 29 -50 10z"/>
<path d="M9190 11083 c-90 -10 -324 -75 -417 -115 -39 -17 -65 -49 -124 -153
-79 -142 -141 -319 -176 -510 -20 -107 -14 -301 10 -338 l17 -26 459 0 c510
-1 481 -5 500 67 13 47 39 440 51 767 6 138 12 255 14 262 3 6 -1 19 -9 30
-12 16 -30 18 -152 19 -76 1 -154 0 -173 -3z"/>
<path d="M10093 10733 c-7 -2 -13 -14 -13 -26 0 -20 -90 -385 -124 -502 -8
-27 -29 -91 -47 -140 -18 -50 -30 -98 -27 -106 5 -13 33 -16 170 -18 126 -1
167 1 176 11 22 27 -60 725 -92 776 -7 12 -22 14 -43 5z"/>
<path d="M7917 10133 c-36 -59 -87 -169 -83 -179 6 -15 82 -19 103 -6 18 12
44 151 32 173 -10 19 -44 26 -52 12z"/>
<path d="M7500 9163 c-8 -3 -27 -17 -42 -31 -25 -23 -28 -33 -28 -85 l0 -59
64 -62 c75 -72 97 -117 98 -206 1 -52 -4 -76 -25 -120 -29 -61 -83 -122 -127
-145 -15 -8 -30 -21 -34 -30 -9 -24 -85 -52 -143 -53 -29 0 -60 -5 -71 -11
-10 -5 -47 -12 -82 -16 -36 -4 -76 -11 -90 -16 -16 -6 -49 -6 -90 1 -139 22
-373 39 -553 40 -152 0 -196 3 -223 16 -19 9 -34 22 -34 29 0 14 -44 25 -101
25 -27 0 -46 -7 -66 -26 -26 -24 -28 -32 -28 -96 0 -68 1 -71 37 -104 24 -22
48 -34 65 -34 197 1 627 -10 634 -17 4 -4 3 -37 -3 -73 -9 -54 -8 -75 6 -125
25 -92 27 -87 -33 -99 -35 -7 -58 -18 -65 -30 -30 -53 -75 -76 -149 -77 -29 0
-60 -4 -70 -8 -26 -10 -178 9 -201 25 -10 7 -24 23 -30 36 -7 13 -20 22 -29
22 -9 -1 -15 2 -12 6 9 15 -54 22 -90 10 -19 -6 -42 -21 -50 -33 -17 -25 -21
-128 -5 -157 13 -25 67 -62 94 -65 11 -1 27 -3 34 -4 16 -1 15 -27 -2 -54 -33
-50 -66 -175 -66 -249 0 -157 103 -332 240 -408 163 -90 277 -132 415 -152
118 -16 386 -17 500 0 204 30 414 123 520 230 88 89 112 144 117 257 3 82 1
90 -15 90 -18 0 -47 30 -47 47 0 4 7 8 17 8 9 0 13 3 10 7 -4 3 -2 12 5 20 8
10 8 17 0 25 -9 9 -15 7 -26 -7 -13 -18 -14 -18 -20 3 -5 14 -1 27 13 41 25
25 26 48 7 87 -21 39 -5 64 39 64 45 0 98 45 98 83 0 32 -21 60 -40 53 -7 -3
-25 -1 -39 4 -20 8 -33 6 -55 -7 -28 -17 -31 -17 -60 0 -39 22 -78 22 -94 0
-10 -14 -16 -15 -28 -5 -14 12 -40 15 -237 32 -52 4 -111 13 -131 19 -39 12
-86 48 -82 62 2 5 -8 16 -21 24 -21 14 -24 23 -22 68 3 52 26 81 26 33 0 -42
27 -31 50 22 18 38 20 58 15 108 -4 42 -3 64 5 69 6 4 77 8 158 9 124 3 158 7
212 26 160 56 281 185 326 346 14 51 15 79 8 160 -5 56 -10 83 -12 62 -3 -36
-4 -36 -24 -20 -11 9 -33 46 -49 81 -29 62 -173 251 -206 269 -9 5 -16 22 -17
38 -1 29 -16 38 -46 27z m-307 -1597 c98 -23 228 -89 272 -138 94 -104 82
-197 -41 -310 -64 -59 -118 -90 -188 -108 -55 -14 -88 -40 -52 -40 31 0 16
-19 -21 -28 -21 -5 -63 -15 -93 -22 -74 -18 -331 -20 -423 -3 -160 29 -287 84
-357 153 -54 54 -68 77 -76 129 -5 34 -3 40 15 46 13 4 21 15 21 28 3 127 164
250 390 298 109 23 445 20 553 -5z"/>
<path d="M10277 9149 c-24 -14 -47 -62 -47 -99 0 -42 20 -77 75 -130 78 -76
90 -102 90 -200 0 -91 -15 -132 -69 -195 -14 -16 -26 -33 -26 -37 0 -5 -6 -8
-14 -8 -7 0 -19 -6 -25 -13 -6 -8 -29 -19 -51 -26 -41 -12 -51 -27 -26 -37 17
-7 10 -34 -9 -34 -7 0 -15 -6 -18 -12 -5 -16 -144 -14 -282 3 -53 6 -276 10
-546 10 -379 -1 -463 2 -490 14 -19 8 -30 14 -25 15 5 0 1 9 -9 20 -14 15 -31
20 -71 20 -76 0 -105 -27 -112 -103 -6 -74 30 -141 80 -153 18 -4 278 -8 578
-9 474 -2 553 -4 606 -19 167 -45 279 -139 361 -302 70 -137 69 -502 -2 -681
-26 -66 -83 -151 -101 -152 -6 -1 -19 -10 -28 -20 -10 -11 -30 -22 -44 -26
-25 -7 -26 -8 -7 -15 19 -8 19 -9 -1 -9 -12 -1 -24 -9 -27 -20 -8 -32 -60 -36
-140 -10 -96 30 -187 88 -187 119 0 5 -9 27 -20 48 -15 29 -20 57 -20 108 2
136 0 159 -10 162 -5 2 -10 10 -10 18 0 23 -48 122 -70 146 -11 12 -20 25 -20
29 0 11 -88 93 -130 121 -20 14 -60 32 -90 42 -30 10 -71 23 -90 29 -19 6 -82
14 -140 17 -101 6 -104 7 -72 20 46 21 40 33 -15 27 -136 -13 -271 -116 -343
-262 -49 -98 -64 -172 -57 -290 6 -114 27 -187 78 -265 73 -114 175 -196 309
-251 86 -35 131 -36 185 -6 34 19 41 29 47 67 10 57 -6 75 -68 78 -68 3 -175
63 -255 143 -57 57 -68 73 -80 125 -16 65 -14 105 4 103 31 -4 37 3 37 39 0
89 98 220 198 264 59 27 187 21 247 -10 90 -46 119 -107 129 -268 8 -143 21
-197 66 -291 69 -141 179 -223 346 -257 218 -43 408 8 532 144 35 39 87 139
110 210 46 146 64 360 43 507 -9 61 -15 71 -36 53 -13 -11 -15 -5 -15 53 0 48
-4 66 -15 71 -8 3 -15 14 -15 24 0 10 -9 27 -19 36 -11 10 -23 35 -26 57 -4
21 -10 39 -14 39 -10 0 -70 131 -77 170 -6 30 -6 31 21 24 15 -4 26 -3 23 2
-2 5 -10 22 -18 37 -19 38 -9 51 75 102 161 98 254 297 224 478 -11 68 -22 84
-32 46 -9 -34 -30 -17 -47 37 -8 28 -20 57 -27 65 -26 30 -70 86 -112 142 -24
31 -47 57 -51 57 -5 0 -16 18 -26 40 -14 32 -23 40 -43 40 -14 0 -34 -5 -44
-11z"/>
<path d="M13693 9148 c-22 -6 -34 -17 -42 -40 -25 -71 -6 -122 73 -198 68 -65
85 -99 88 -183 2 -61 -24 -157 -43 -157 -5 0 -9 -6 -9 -13 0 -7 -16 -27 -35
-46 -19 -18 -35 -37 -35 -42 0 -5 -7 -9 -15 -9 -42 0 -90 -45 -64 -61 14 -8 3
-29 -15 -29 -8 0 -19 -6 -25 -14 -14 -16 -125 -15 -387 5 -139 10 -304 8 -379
-5 -16 -3 -85 -7 -153 -10 -75 -3 -133 -10 -150 -19 -29 -14 -102 -12 -102 3
0 5 -21 12 -47 16 -52 7 -113 31 -113 44 0 14 -85 50 -119 50 -51 0 -91 -46
-91 -104 0 -57 11 -87 49 -125 27 -27 37 -31 85 -31 64 0 76 -12 48 -48 -79
-102 -143 -254 -168 -399 -13 -74 -15 -136 -11 -282 8 -268 28 -358 119 -512
91 -154 264 -238 466 -226 164 10 219 28 325 103 26 19 55 34 65 34 9 0 40
-16 67 -36 63 -45 101 -61 195 -85 142 -36 309 -18 420 45 132 75 230 226 261
401 18 103 19 289 2 306 -11 11 -13 10 -13 -4 0 -29 -44 -4 -56 32 -10 31 -39
73 -75 110 -21 21 -62 108 -68 146 -1 6 -9 21 -18 34 -8 13 -17 38 -20 55 -2
17 -13 45 -23 63 -37 63 -34 163 4 169 29 4 42 22 28 36 -7 7 -12 25 -12 40 0
22 6 29 28 34 98 21 237 137 298 248 43 78 65 272 36 321 -10 18 -11 18 -12 3
0 -20 -15 -24 -25 -8 -4 6 -11 8 -16 5 -5 -4 -9 1 -9 10 0 38 -67 151 -140
236 -33 38 -60 76 -60 85 0 8 -7 17 -15 20 -10 4 -13 13 -10 25 6 16 2 19 -22
17 -16 -1 -43 -6 -60 -10z m-407 -1007 c77 -27 121 -51 172 -95 39 -34 28 -43
-65 -50 -70 -5 -101 -13 -152 -39 -84 -42 -154 -113 -182 -186 -32 -80 -36
-198 -11 -276 11 -33 18 -63 15 -67 -2 -5 -27 -8 -55 -8 -45 0 -54 -4 -84 -35
-29 -31 -64 -116 -64 -156 0 -35 -45 -151 -69 -177 -14 -16 -53 -42 -86 -58
-38 -18 -54 -30 -42 -32 9 -2 17 -10 17 -18 0 -35 -114 -45 -207 -18 -102 30
-200 146 -220 259 -13 72 -14 124 -3 105 15 -25 27 50 35 230 12 255 125 472
300 575 109 64 158 73 405 74 212 1 216 1 296 -28z m234 -424 c22 -12 25 -18
21 -62 -4 -68 -44 -144 -81 -156 -15 -6 -30 -19 -33 -31 -6 -21 -19 -21 -119
-2 -34 7 -52 51 -32 79 8 10 12 27 9 36 -11 32 49 112 100 135 38 17 103 17
135 1z m-1261 -356 c-15 -5 -22 6 -14 19 6 9 10 9 16 -1 5 -8 4 -15 -2 -18z
m1431 -108 c-14 -65 -60 -166 -93 -203 -12 -14 -43 -39 -69 -56 -26 -17 -45
-34 -42 -37 12 -11 -81 -47 -121 -47 -44 0 -161 38 -190 61 -10 8 -35 30 -56
50 -34 32 -39 42 -39 82 0 48 22 73 52 62 10 -4 12 12 10 75 -4 91 1 95 61 54
55 -37 142 -64 206 -64 77 0 180 30 232 68 56 41 66 31 49 -45z"/>
<path d="M13705 8070 c3 -5 10 -10 16 -10 5 0 9 5 9 10 0 6 -7 10 -16 10 -8 0
-12 -4 -9 -10z"/>
<path d="M10899 7657 c-70 -47 -61 -126 24 -219 139 -151 188 -236 209 -357
16 -97 21 -317 9 -381 -6 -30 -18 -91 -27 -135 -14 -71 -25 -94 -46 -95 -4 0
-10 5 -13 10 -4 7 -13 7 -25 0 -21 -11 -70 -3 -70 11 0 5 -6 9 -13 9 -8 0 -24
9 -37 20 -13 11 -28 20 -34 20 -6 0 -24 11 -40 25 -16 14 -38 25 -48 25 -11 0
-28 5 -39 11 -43 23 -134 39 -219 39 -72 0 -90 3 -90 14 0 12 6 13 28 5 34
-12 111 14 79 27 -17 6 -34 4 -147 -15 -202 -36 -314 -227 -289 -498 4 -45 13
-94 21 -110 8 -15 23 -45 33 -66 39 -80 124 -146 235 -182 77 -25 99 -28 240
-29 l155 -1 80 34 c44 19 94 45 111 58 17 13 34 23 39 23 9 0 25 -19 59 -70
91 -135 212 -203 361 -204 131 0 200 51 171 129 -9 25 -17 30 -46 32 -128 6
-253 57 -320 129 -23 25 -40 53 -38 62 2 9 -5 25 -14 34 -24 24 -23 59 1 65
19 5 31 30 31 67 0 10 11 32 25 50 39 48 38 47 69 116 16 36 32 72 37 82 19
37 51 197 59 296 8 92 8 133 1 255 -2 30 -21 18 -21 -13 0 -16 -4 -30 -10 -30
-5 0 -10 6 -10 13 0 8 -4 7 -10 -3 -8 -12 -10 -10 -10 8 0 13 4 20 10 17 6 -3
10 1 10 9 0 9 -4 16 -10 16 -5 0 -13 18 -16 40 -4 22 -10 40 -15 40 -5 0 -9 8
-9 17 0 26 -42 146 -57 164 -7 8 -13 22 -13 30 0 8 -9 29 -20 47 -11 18 -20
39 -20 46 0 8 -3 16 -7 18 -5 2 -33 36 -62 76 -30 39 -58 72 -63 72 -4 0 -14
12 -22 28 -8 15 -28 41 -44 58 -16 16 -33 40 -36 52 -4 12 -11 22 -16 22 -5 0
-15 2 -22 5 -8 3 -30 -5 -49 -18z m-176 -1218 c60 -16 106 -65 149 -155 21
-45 38 -86 38 -92 0 -18 -131 -127 -172 -144 -19 -8 -25 -28 -8 -28 6 0 10 -4
10 -10 0 -5 -22 -10 -50 -10 -40 0 -48 -3 -44 -15 7 -16 -5 -18 -81 -15 -121
4 -245 99 -245 188 0 13 11 37 25 54 14 16 25 39 25 51 1 58 67 149 118 162
92 23 183 29 235 14z"/>
<path d="M7363 5667 c-75 -46 -112 -83 -133 -130 -26 -59 -33 -122 -21 -193
14 -87 44 -147 93 -187 74 -60 104 -70 209 -73 111 -3 130 4 202 74 l47 46 0
-31 c0 -23 -11 -41 -41 -72 -23 -22 -50 -41 -60 -41 -10 0 -20 -4 -23 -9 -9
-13 -79 -22 -221 -27 -127 -5 -131 -6 -168 -36 l-39 -30 -378 -2 c-376 -1
-379 -1 -402 21 -34 32 -112 48 -157 32 -30 -11 -61 -60 -61 -96 0 -42 22 -92
48 -109 25 -18 62 -19 537 -24 542 -6 545 -7 640 -57 82 -45 162 -139 198
-234 43 -112 61 -369 36 -491 -20 -96 -63 -171 -135 -235 -53 -47 -74 -59
-112 -65 -55 -9 -150 14 -181 43 -11 11 -23 19 -26 19 -8 0 -29 18 -91 78 -34
34 -54 61 -54 76 0 31 -20 86 -31 86 -5 0 -4 9 3 20 15 24 0 44 -25 34 -18 -7
-97 -121 -97 -140 0 -33 -50 -106 -105 -152 -33 -29 -167 -85 -175 -73 -3 4
-24 12 -48 18 -55 14 -126 69 -145 113 -51 117 -52 122 -29 138 16 10 22 25
22 51 0 45 32 132 54 146 14 8 23 3 44 -21 38 -43 89 -64 159 -64 111 1 195
65 208 158 9 65 -7 94 -44 80 -41 -15 -96 0 -229 65 -12 6 -28 22 -35 36 -10
20 -19 25 -39 23 -16 -1 -28 3 -32 13 -8 23 -33 18 -95 -19 -189 -115 -250
-279 -200 -535 17 -86 88 -202 164 -269 97 -85 230 -126 357 -111 134 16 186
37 277 113 41 35 64 38 75 11 6 -15 73 -62 121 -83 102 -46 247 -59 345 -29
79 23 170 85 211 143 46 64 94 166 109 229 26 109 24 444 -1 376 -14 -35 -19
-21 -9 23 10 46 4 66 -21 66 -12 0 -21 9 -24 25 -3 14 -7 36 -10 49 -3 14 -12
31 -20 40 -8 8 -15 24 -15 36 0 12 -12 42 -27 68 -23 41 -27 59 -28 145 l-2
98 40 22 c22 12 48 27 59 33 32 19 88 77 88 91 0 7 4 13 9 13 16 0 42 69 57
151 12 64 13 89 4 127 -6 26 -14 59 -17 75 -4 22 -10 27 -32 26 -17 -1 -20 -3
-8 -6 10 -3 17 -14 17 -29 0 -31 -18 -31 -30 1 -5 14 -17 28 -25 32 -9 3 -14
12 -11 20 8 20 -11 53 -32 53 -15 0 -15 2 -2 10 8 5 10 10 4 10 -6 0 -36 24
-65 53 -30 28 -72 58 -94 66 -22 8 -42 17 -45 20 -11 13 -51 31 -70 31 -40 0
-88 27 -92 52 -5 37 -61 35 -125 -5z"/>
<path d="M13110 5685 c-7 -8 -17 -15 -22 -15 -6 0 -36 -22 -67 -49 -78 -68
-96 -117 -89 -255 5 -89 9 -107 32 -141 57 -84 135 -131 233 -140 122 -12 157
-2 225 65 63 62 83 60 53 -4 -38 -80 -119 -113 -302 -120 -94 -4 -143 -10
-172 -23 -52 -22 -52 -33 -1 -33 47 0 49 -7 12 -36 -42 -33 -116 -45 -154 -26
-17 8 -54 16 -82 16 -28 1 -54 5 -58 10 -3 6 -107 13 -230 17 -233 7 -278 13
-278 34 0 21 -94 35 -135 19 -23 -9 -45 -57 -45 -100 0 -39 32 -97 60 -111 8
-4 143 -10 300 -13 l285 -5 -3 -70 c-2 -45 2 -85 12 -114 9 -24 14 -47 11 -51
-2 -4 -32 -13 -65 -20 -64 -14 -79 -25 -61 -43 19 -19 12 -34 -16 -42 -15 -3
-46 -15 -70 -26 -40 -18 -142 -28 -116 -11 8 5 -1 8 -21 8 -37 0 -106 32 -106
49 0 6 -27 23 -60 38 -44 19 -66 24 -83 18 -86 -33 -88 -190 -2 -222 65 -24
75 -29 75 -38 0 -5 -5 -13 -10 -16 -14 -9 -47 -83 -61 -139 -7 -29 -9 -76 -6
-119 13 -155 115 -286 287 -369 136 -66 206 -82 418 -97 254 -19 522 35 667
134 55 37 135 106 135 116 0 5 11 26 23 47 35 55 49 125 41 201 -8 79 -17 93
-50 81 -33 -13 -32 7 2 22 19 9 24 17 19 32 -4 12 -9 32 -12 46 -3 14 -12 32
-19 41 -18 20 0 46 38 53 44 8 67 25 76 59 13 46 6 58 -24 45 -18 -8 -27 -8
-40 3 -14 11 -18 11 -28 -2 -26 -37 -54 -41 -111 -20 -47 18 -151 38 -290 55
-50 6 -142 39 -164 58 -9 8 -25 17 -34 21 -25 9 -23 73 2 87 11 5 23 19 26 31
5 15 10 17 20 9 20 -17 38 39 30 93 -9 56 -12 55 160 60 110 3 126 6 189 35
171 80 267 220 265 386 -1 91 -10 121 -34 121 -22 0 -54 29 -74 67 -7 14 -24
32 -37 39 -13 7 -24 17 -24 22 0 18 -77 84 -131 113 -30 16 -55 32 -57 37 -2
4 -23 7 -46 7 -48 0 -90 33 -84 66 3 16 -5 19 -53 22 -41 2 -59 -1 -69 -13z
m583 -388 c3 -8 1 -20 -4 -28 -6 -10 -9 -7 -9 14 0 29 5 35 13 14z m-523
-1052 c170 -55 270 -139 270 -226 0 -40 -41 -108 -92 -153 -50 -44 -213 -134
-232 -128 -17 6 -65 -10 -63 -20 2 -13 -12 -16 -128 -30 -158 -19 -373 14
-482 74 -63 35 -85 54 -126 110 -31 42 -33 56 -12 84 8 10 15 30 15 44 2 92
115 193 264 237 95 28 141 31 336 29 155 -2 206 -6 250 -21z"/>
<path d="M10155 5075 c-16 -8 -39 -14 -50 -15 -23 0 -108 -52 -149 -90 -62
-57 -98 -174 -90 -286 5 -66 3 -71 -31 -122 -19 -30 -35 -59 -35 -66 0 -7 -4
-16 -8 -22 -10 -11 -25 -59 -49 -149 -22 -85 -24 -317 -4 -410 47 -222 137
-331 316 -388 153 -48 363 -16 475 73 46 36 62 37 103 6 105 -80 279 -118 415
-89 111 23 152 43 212 104 75 78 116 163 140 296 23 122 25 201 9 341 -10 85
-14 100 -33 108 -15 6 -23 23 -30 59 -5 28 -15 54 -22 58 -8 4 -14 17 -14 29
0 32 -61 136 -158 270 -30 40 -108 108 -125 108 -6 0 -20 9 -32 20 -22 21
-142 50 -222 53 -26 1 -54 11 -74 26 -18 13 -42 26 -53 27 -52 9 -82 18 -88
28 -5 7 -62 12 -154 14 -109 3 -151 8 -161 18 -18 17 -48 17 -88 -1z m354
-198 c87 -30 109 -199 36 -272 -28 -27 -74 -53 -106 -59 -22 -4 -36 -12 -36
-21 0 -8 4 -15 9 -15 4 0 8 -4 8 -9 0 -4 -39 -11 -87 -15 -83 -6 -92 -5 -171
26 -59 23 -87 39 -93 55 -4 11 -13 24 -18 28 -19 11 -13 63 9 75 11 6 24 29
31 53 19 73 89 133 177 152 74 16 198 17 241 2z m391 -58 c124 -75 218 -202
263 -354 19 -61 21 -95 21 -265 -1 -203 -8 -249 -58 -346 -19 -38 -94 -109
-125 -119 -11 -3 -21 -13 -21 -21 0 -11 -18 -14 -83 -14 -85 0 -131 15 -219
74 -31 20 -88 102 -88 125 0 9 -8 28 -17 41 -10 14 -18 43 -18 64 0 89 -67 33
-110 -93 -32 -91 -60 -125 -143 -174 -75 -44 -94 -49 -156 -44 -115 10 -192
80 -216 194 -7 34 -9 77 -6 95 4 18 11 71 15 118 10 96 14 119 42 207 27 84
34 88 102 58 154 -68 378 -73 507 -13 162 76 243 208 243 396 0 104 4 109 67
71z"/>
<path d="M8565 4985 c-22 -6 -57 -19 -79 -28 -21 -9 -42 -17 -46 -17 -21 0
-115 -100 -151 -160 -72 -122 -99 -256 -99 -500 0 -174 8 -242 46 -365 35
-117 146 -284 211 -318 141 -76 194 -90 329 -90 61 0 126 6 145 12 19 6 59 18
89 27 30 9 83 32 117 52 52 30 65 43 83 83 11 26 20 54 20 62 0 20 -27 29 -34
11 -7 -17 -37 -18 -55 -1 -11 10 -14 10 -18 0 -7 -19 -83 -17 -83 1 0 8 5 18
10 21 6 3 10 13 10 22 0 24 -52 10 -114 -32 -29 -19 -59 -35 -66 -35 -7 0 -22
-8 -32 -17 -43 -39 -185 -30 -277 16 -41 21 -105 87 -96 100 2 5 -4 16 -15 26
-26 23 -25 59 0 83 19 18 19 21 5 62 -16 46 -20 96 -7 104 5 3 31 -6 59 -20
28 -14 92 -32 144 -40 85 -14 102 -14 182 1 112 21 168 45 234 101 106 91 148
181 147 320 -1 51 -4 100 -9 110 -7 18 -7 18 -15 -1 -6 -15 -9 -16 -9 -4 -1 9
-12 28 -25 42 -14 15 -30 42 -37 62 -7 19 -18 35 -24 35 -5 0 -28 25 -49 55
-22 30 -62 71 -90 90 -55 37 -178 85 -223 85 -30 1 -147 28 -125 29 6 1 12 5
12 10 0 15 -23 17 -65 6z m292 -228 c43 -23 100 -85 124 -136 25 -54 23 -144
-5 -203 -19 -39 -94 -128 -108 -128 -4 0 -26 -11 -48 -25 -22 -14 -53 -25 -70
-25 -20 0 -30 -5 -30 -15 0 -19 -30 -19 -55 -1 -10 7 -26 11 -35 9 -19 -5
-107 22 -127 39 -8 6 -16 9 -19 6 -3 -3 -19 9 -37 26 -30 30 -32 34 -31 106 2
112 3 120 14 120 5 0 12 -11 16 -25 11 -45 34 -22 34 35 0 88 104 205 205 231
43 12 137 4 172 -14z"/>
<path d="M4020 16810 c0 -15 51 -110 59 -110 16 0 51 33 51 48 0 9 -21 29 -46
45 -48 29 -64 33 -64 17z"/>
<path d="M1025 10377 l-29 -24 22 -47 c12 -25 27 -46 32 -46 6 0 20 20 32 45
l22 45 -25 26 -26 26 -28 -25z"/>
<path d="M866 10348 c-9 -12 -16 -29 -16 -37 0 -18 71 -84 80 -74 4 4 10 29
13 55 6 45 5 47 -25 62 -38 20 -34 20 -52 -6z"/>
<path d="M1176 10347 c-20 -16 -27 -28 -21 -37 4 -7 8 -28 7 -47 -1 -18 2 -33
6 -33 4 0 27 18 51 39 l43 39 -23 31 c-12 17 -25 31 -28 31 -3 0 -19 -11 -35
-23z"/>
<path d="M739 10261 c-31 -25 -18 -53 36 -79 69 -33 77 -31 57 21 -8 23 -19
47 -24 53 -15 21 -47 23 -69 5z"/>
<path d="M1313 10273 c-12 -4 -53 -86 -53 -104 0 -16 26 -10 74 17 50 28 60
56 29 80 -19 14 -30 16 -50 7z"/>
<path d="M970 10256 c0 -8 5 -18 10 -21 6 -3 10 1 10 9 0 8 -4 18 -10 21 -5 3
-10 -1 -10 -9z"/>
<path d="M1086 10252 c-2 -4 0 -14 5 -22 8 -13 10 -13 19 0 5 8 10 18 10 23 0
10 -28 9 -34 -1z"/>
<path d="M880 10191 c0 -12 6 -21 15 -21 8 0 15 4 15 9 0 5 -7 14 -15 21 -13
10 -15 9 -15 -9z"/>
<path d="M1200 10194 c0 -17 22 -14 28 4 2 7 -3 12 -12 12 -9 0 -16 -7 -16
-16z"/>
<path d="M1040 10170 c0 -13 5 -20 13 -17 6 2 12 10 12 17 0 7 -6 15 -12 18
-8 2 -13 -5 -13 -18z"/>
<path d="M1123 10155 c-3 -9 -3 -18 0 -21 9 -9 27 6 27 22 0 19 -19 18 -27 -1z"/>
<path d="M658 10136 c-23 -17 -23 -63 0 -75 10 -5 41 -6 69 -3 l52 7 -38 43
c-39 44 -55 50 -83 28z"/>
<path d="M1367 10112 c-20 -21 -37 -41 -37 -45 0 -4 27 -7 60 -7 55 0 61 2 72
25 9 21 9 28 -3 39 -31 30 -54 27 -92 -12z"/>
<path d="M790 10122 c0 -5 7 -13 16 -16 10 -4 14 -1 12 6 -5 15 -28 23 -28 10z"/>
<path d="M880 10106 c0 -18 17 -29 30 -21 8 5 7 11 -1 21 -15 18 -29 18 -29 0z"/>
<path d="M1185 10100 c-3 -5 1 -10 9 -10 8 0 18 5 21 10 3 6 -1 10 -9 10 -8 0
-18 -4 -21 -10z"/>
<path d="M1025 10070 c-4 -6 5 -10 20 -10 15 0 24 4 20 10 -3 6 -12 10 -20 10
-8 0 -17 -4 -20 -10z"/>
<path d="M1235 10039 c-10 -15 3 -25 16 -12 7 7 7 13 1 17 -6 3 -14 1 -17 -5z"/>
<path d="M845 10030 c3 -5 10 -10 16 -10 5 0 9 5 9 10 0 6 -7 10 -16 10 -8 0
-12 -4 -9 -10z"/>
<path d="M1065 10021 c-3 -6 3 -15 14 -20 11 -6 21 -23 23 -38 2 -22 8 -28 28
-28 20 0 26 6 28 27 2 20 0 26 -10 23 -8 -3 -24 6 -36 20 -23 26 -37 31 -47
16z"/>
<path d="M989 10001 c-22 -24 -30 -62 -17 -78 17 -21 24 -15 26 24 2 21 9 41
17 46 8 4 15 12 15 17 0 16 -24 10 -41 -9z"/>
<path d="M1415 9992 c-78 -33 -79 -37 -10 -72 l45 -23 25 23 c31 29 31 41 3
67 -22 20 -24 20 -63 5z"/>
<path d="M616 9975 c-15 -23 -15 -26 7 -49 l22 -25 50 18 c59 21 63 39 15 63
-49 24 -75 22 -94 -7z"/>
<path d="M825 9959 c-10 -15 3 -25 16 -12 7 7 7 13 1 17 -6 3 -14 1 -17 -5z"/>
<path d="M1258 9948 c9 -9 15 -9 24 0 9 9 7 12 -12 12 -19 0 -21 -3 -12 -12z"/>
<path d="M1320 9906 c0 -9 5 -16 10 -16 6 0 10 4 10 9 0 6 -4 13 -10 16 -5 3
-10 -1 -10 -9z"/>
<path d="M1028 9903 c-31 -5 -34 -13 -16 -31 17 -17 63 -15 79 4 10 13 10 17
-2 25 -8 5 -18 8 -24 7 -5 0 -22 -3 -37 -5z"/>
<path d="M850 9875 c0 -8 5 -15 10 -15 6 0 10 7 10 15 0 8 -4 15 -10 15 -5 0
-10 -7 -10 -15z"/>
<path d="M1230 9876 c0 -9 7 -16 16 -16 9 0 14 5 12 12 -6 18 -28 21 -28 4z"/>
<path d="M656 9835 c-33 -34 -15 -76 32 -75 16 1 98 68 90 75 -2 1 -26 6 -54
10 -41 5 -54 3 -68 -10z"/>
<path d="M1358 9843 c-16 -2 -28 -7 -28 -10 0 -16 75 -73 96 -73 34 0 50 35
29 66 -16 24 -31 27 -97 17z"/>
<path d="M887 9813 c-12 -11 -8 -23 8 -23 8 0 15 7 15 15 0 16 -12 20 -23 8z"/>
<path d="M1182 9808 c3 -7 15 -14 29 -16 23 -2 23 -2 5 13 -24 18 -39 20 -34
3z"/>
<path d="M795 9790 c-10 -11 -15 -20 -11 -20 11 0 39 30 34 36 -3 2 -13 -5
-23 -16z"/>
<path d="M1122 9763 c5 -25 28 -28 28 -4 0 12 -6 21 -16 21 -9 0 -14 -7 -12
-17z"/>
<path d="M960 9749 c0 -5 5 -7 10 -4 6 3 10 8 10 11 0 2 -4 4 -10 4 -5 0 -10
-5 -10 -11z"/>
<path d="M1040 9740 c0 -13 5 -20 13 -17 6 2 12 10 12 17 0 7 -6 15 -12 18 -8
2 -13 -5 -13 -18z"/>
<path d="M1255 9743 c4 -10 13 -33 20 -51 16 -46 27 -54 66 -50 30 3 34 6 34
32 0 26 -7 32 -64 58 -53 23 -62 25 -56 11z"/>
<path d="M810 9741 c-8 -4 -28 -14 -45 -22 -23 -12 -30 -21 -30 -44 0 -53 73
-47 91 7 6 18 14 41 19 51 8 18 -8 22 -35 8z"/>
<path d="M880 9714 c0 -17 22 -14 28 4 2 7 -3 12 -12 12 -9 0 -16 -7 -16 -16z"/>
<path d="M1200 9716 c0 -17 14 -29 23 -20 8 8 -3 34 -14 34 -5 0 -9 -6 -9 -14z"/>
<path d="M885 9638 c-39 -38 -39 -39 -24 -66 11 -20 21 -26 40 -24 35 5 51 31
44 72 -11 58 -17 60 -60 18z"/>
<path d="M1090 9661 c0 -12 6 -21 16 -21 9 0 14 7 12 17 -5 25 -28 28 -28 4z"/>
<path d="M970 9654 c0 -8 5 -12 10 -9 6 3 10 10 10 16 0 5 -4 9 -10 9 -5 0
-10 -7 -10 -16z"/>
<path d="M1165 9648 c-13 -63 -9 -83 21 -97 22 -10 30 -9 45 5 27 25 24 46
-14 82 -39 38 -45 39 -52 10z"/>
<path d="M1021 9604 c-26 -44 -26 -46 2 -72 30 -28 43 -28 62 1 13 21 13 28
-2 65 -9 23 -22 42 -29 42 -6 0 -21 -16 -33 -36z"/>
<path d="M19052 10377 c-12 -13 -22 -30 -22 -38 0 -22 38 -79 52 -79 7 0 21
21 30 47 17 47 17 48 -4 70 -27 28 -29 28 -56 0z"/>
<path d="M18898 10353 c-31 -36 -28 -50 17 -92 47 -43 73 -53 59 -23 -7 17 -8
44 -2 75 2 11 -9 25 -28 37 -29 19 -32 19 -46 3z"/>
<path d="M19208 10351 c-18 -15 -22 -27 -19 -62 4 -69 12 -70 64 -13 25 28 27
34 16 57 -16 35 -33 40 -61 18z"/>
<path d="M18768 10269 c-34 -19 -22 -55 28 -83 46 -26 74 -33 74 -19 0 26 -39
94 -58 102 -27 13 -23 13 -44 0z"/>
<path d="M19323 10263 c-7 -2 -13 -14 -13 -25 0 -11 -8 -33 -17 -49 -24 -40
-12 -45 42 -19 56 27 83 63 65 85 -12 14 -52 19 -77 8z"/>
<path d="M18910 10196 c0 -9 5 -16 10 -16 6 0 10 4 10 9 0 6 -4 13 -10 16 -5
3 -10 -1 -10 -9z"/>
<path d="M19230 10195 c0 -8 5 -15 10 -15 6 0 10 7 10 15 0 8 -4 15 -10 15 -5
0 -10 -7 -10 -15z"/>
<path d="M19070 10160 c0 -5 5 -10 11 -10 5 0 7 5 4 10 -3 6 -8 10 -11 10 -2
0 -4 -4 -4 -10z"/>
<path d="M18986 10152 c-3 -6 -1 -14 5 -17 15 -10 25 3 12 16 -7 7 -13 7 -17
1z"/>
<path d="M18686 10137 c-12 -9 -17 -23 -14 -42 3 -29 5 -30 66 -33 34 -2 62 1
62 5 0 13 -70 83 -84 83 -7 0 -20 -6 -30 -13z"/>
<path d="M19385 10110 c-21 -22 -37 -41 -34 -43 2 -3 25 -7 51 -9 37 -4 51 -1
67 14 28 26 26 52 -4 66 -36 17 -37 17 -80 -28z"/>
<path d="M18815 10120 c3 -5 11 -10 16 -10 6 0 7 5 4 10 -3 6 -11 10 -16 10
-6 0 -7 -4 -4 -10z"/>
<path d="M19320 10120 c0 -5 5 -10 10 -10 6 0 10 5 10 10 0 6 -4 10 -10 10 -5
0 -10 -4 -10 -10z"/>
<path d="M19225 10111 c-6 -11 9 -23 19 -14 9 9 7 23 -3 23 -6 0 -12 -4 -16
-9z"/>
<path d="M18915 10100 c3 -5 10 -10 16 -10 5 0 9 5 9 10 0 6 -7 10 -16 10 -8
0 -12 -4 -9 -10z"/>
<path d="M19060 10071 c0 -12 29 -23 41 -15 5 3 7 10 4 15 -8 12 -45 12 -45 0z"/>
<path d="M19265 10039 c-10 -14 -1 -21 19 -13 9 3 13 10 10 15 -7 12 -21 11
-29 -2z"/>
<path d="M19104 10019 c-7 -12 32 -56 42 -47 9 10 -5 46 -21 52 -8 3 -17 0
-21 -5z"/>
<path d="M19001 9986 c-25 -40 -27 -66 -6 -66 9 0 24 -13 33 -30 9 -16 22 -32
28 -34 20 -8 94 44 94 65 0 10 -4 19 -10 19 -5 0 -10 -5 -10 -10 0 -18 -52
-32 -77 -21 -25 12 -30 42 -13 85 15 39 -14 34 -39 -8z"/>
<path d="M18652 9984 c-28 -19 -28 -26 1 -59 l23 -27 47 23 c26 13 47 28 47
35 0 6 -19 19 -43 28 -52 19 -48 19 -75 0z"/>
<path d="M19421 9982 c-47 -23 -48 -35 -6 -55 48 -23 81 -21 99 5 15 20 14 24
-6 45 -25 27 -41 28 -87 5z"/>
<path d="M18845 9961 c-7 -12 12 -24 25 -16 11 7 4 25 -10 25 -5 0 -11 -4 -15
-9z"/>
<path d="M19280 9956 c0 -9 7 -16 16 -16 9 0 14 5 12 12 -6 18 -28 21 -28 4z"/>
<path d="M19350 9905 c0 -8 4 -15 10 -15 5 0 7 7 4 15 -4 8 -8 15 -10 15 -2 0
-4 -7 -4 -15z"/>
<path d="M19260 9875 c0 -8 5 -15 10 -15 6 0 10 7 10 15 0 8 -4 15 -10 15 -5
0 -10 -7 -10 -15z"/>
<path d="M18865 9870 c-3 -5 -2 -10 4 -10 5 0 13 5 16 10 3 6 2 10 -4 10 -5 0
-13 -4 -16 -10z"/>
<path d="M18674 9825 c-22 -33 -10 -58 29 -63 20 -2 37 6 63 32 21 20 35 38
33 40 -2 2 -27 7 -56 11 -48 6 -53 5 -69 -20z"/>
<path d="M19383 9843 c-31 -6 -29 -18 10 -53 46 -42 97 -36 97 10 0 39 -43 55
-107 43z"/>
<path d="M18915 9809 c-4 -6 -5 -13 -2 -16 7 -7 27 6 27 18 0 12 -17 12 -25
-2z"/>
<path d="M19222 9798 c2 -6 10 -14 16 -16 7 -2 10 2 6 12 -7 18 -28 22 -22 4z"/>
<path d="M18820 9790 c-8 -5 -12 -11 -10 -14 3 -2 14 2 24 10 22 15 10 19 -14
4z"/>
<path d="M18986 9772 c-3 -6 -1 -14 5 -17 15 -10 25 3 12 16 -7 7 -13 7 -17 1z"/>
<path d="M19150 9759 c0 -5 5 -7 10 -4 6 3 10 8 10 11 0 2 -4 4 -10 4 -5 0
-10 -5 -10 -11z"/>
<path d="M19070 9740 c0 -19 3 -21 12 -12 9 9 9 15 0 24 -9 9 -12 7 -12 -12z"/>
<path d="M19280 9742 c0 -5 7 -17 15 -28 8 -10 15 -29 15 -40 0 -35 66 -48 90
-19 18 21 -12 64 -51 72 -16 3 -32 10 -35 14 -7 11 -34 12 -34 1z"/>
<path d="M18801 9722 c-67 -34 -70 -86 -4 -80 35 3 39 7 55 51 17 44 17 47 0
47 -9 0 -32 -8 -51 -18z"/>
<path d="M19230 9716 c0 -9 5 -16 10 -16 6 0 10 4 10 9 0 6 -4 13 -10 16 -5 3
-10 -1 -10 -9z"/>
<path d="M18910 9709 c0 -5 5 -7 10 -4 6 3 10 8 10 11 0 2 -4 4 -10 4 -5 0
-10 -5 -10 -11z"/>
<path d="M18970 9690 c0 -6 -8 -14 -17 -17 -24 -9 -72 -65 -73 -84 0 -9 8 -24
19 -33 15 -14 23 -15 44 -5 32 15 39 32 27 65 -13 34 -13 40 5 58 9 9 11 17 5
21 -5 3 -10 1 -10 -5z"/>
<path d="M19197 9663 c-4 -3 -7 -28 -7 -55 0 -43 3 -50 26 -60 23 -11 29 -10
45 11 25 31 25 34 -15 75 -35 38 -39 40 -49 29z"/>
<path d="M19045 9604 c-30 -64 13 -118 60 -74 23 22 23 23 7 66 -20 55 -43 57
-67 8z"/>
<path d="M15595 2980 c-8 -12 26 -91 47 -107 11 -10 19 -9 36 3 33 23 27 47
-23 82 -51 36 -51 36 -60 22z"/>
<path d="M11725 1198 c-2 -7 -3 -33 -2 -58 2 -41 5 -45 29 -48 43 -5 54 28 26
78 -23 40 -45 51 -53 28z"/>
<path d="M10680 1130 c-10 -6 -14 -24 -12 -56 1 -26 4 -50 7 -53 3 -3 34 -4
68 -3 95 4 124 33 95 97 -10 23 -16 25 -77 25 -36 0 -73 -4 -81 -10z"/>
</g>
</svg>
